<svg width="150" height="150" viewBox="0 0 150 150" fill="none" xmlns="http://www.w3.org/2000/svg">
<circle cx="74.9793" cy="75.2992" r="74.3434" fill="#276180" fill-opacity="0.3"/>
<path d="M75.1494 36.8481C63.0894 36.8481 51.0194 36.9081 38.9594 36.7981C36.6094 36.7781 36.0394 37.5281 36.0594 39.7681C36.1594 51.8181 36.1194 63.8681 36.0994 75.9281C36.0994 79.2781 36.6194 82.5581 37.5694 85.7481C44.2394 108.008 67.8594 119.478 89.5394 111.028C103.839 105.458 113.829 90.8581 113.839 75.5181C113.839 63.5481 113.789 51.5781 113.889 39.6081C113.909 37.3981 113.269 36.7881 111.079 36.8081C99.0994 36.9081 87.1195 36.8581 75.1395 36.8581L75.1494 36.8481Z" fill="#1B2428"/>
<path d="M75.1494 36.8481C87.1294 36.8481 99.1094 36.8981 111.089 36.7981C113.279 36.7781 113.919 37.3981 113.899 39.5981C113.799 51.5681 113.849 63.5381 113.849 75.5081C113.849 90.8481 103.849 105.448 89.5494 111.018C67.8694 119.468 44.2494 107.998 37.5794 85.7381C36.6194 82.5481 36.0995 79.2681 36.1095 75.9181C36.1195 63.8681 36.1694 51.8081 36.0694 39.7581C36.0494 37.5181 36.6194 36.7681 38.9694 36.7881C51.0294 36.8981 63.0894 36.8381 75.1594 36.8381L75.1494 36.8481ZM98.9494 101.488C105.399 95.4381 109.389 88.7081 110.279 80.7081C111.719 67.6281 110.599 54.4581 110.889 41.3381C110.919 40.0981 110.309 39.7781 109.209 39.7781C102.639 39.7981 96.0595 39.8081 89.4895 39.7681C88.0595 39.7581 87.5895 40.3281 87.6195 41.6981C87.6795 44.1881 87.5694 46.6881 87.6594 49.1781C87.7094 50.6581 87.2394 51.2281 85.6794 51.2181C78.5194 51.1481 71.3694 51.1581 64.2094 51.2181C62.7794 51.2281 62.2994 50.7081 62.3394 49.3281C62.4094 46.9981 62.2495 44.6681 62.3895 42.3481C62.5095 40.4281 61.9394 39.7081 59.8994 39.7481C53.7394 39.8681 47.5794 39.8581 41.4294 39.7481C39.5094 39.7181 39.0594 40.3781 39.0694 42.1881C39.1394 53.3281 38.9694 64.4781 39.1494 75.6181C39.2894 84.5081 42.4694 92.3281 48.4494 98.9581C49.1194 99.6981 49.6994 100.668 51.0294 100.938C51.0294 96.0981 51.0795 91.4581 50.9995 86.8081C50.9795 85.2681 51.3294 84.5581 53.0494 84.5881C57.7094 84.6881 62.3694 84.6681 67.0294 84.5881C68.5594 84.5681 69.0494 85.1081 69.0194 86.6181C68.9394 91.1081 68.9795 95.5981 68.9995 100.088C69.0095 104.158 71.4795 106.938 74.9995 106.878C78.4695 106.828 80.9595 103.988 80.9895 99.9881C81.0195 95.5781 81.0494 91.1781 80.9694 86.7681C80.9394 85.1881 81.3794 84.5481 83.0594 84.5881C87.6394 84.6781 92.2194 84.6881 96.7894 84.5881C98.5994 84.5481 99.0395 85.2281 98.9995 86.9081C98.8995 91.5381 98.9694 96.1681 98.9694 101.498L98.9494 101.488ZM60.0294 95.0381C56.0494 95.0381 54.0627 97.0381 54.0694 101.038C54.0694 101.208 54.0894 101.378 54.0694 101.538C53.7494 103.458 54.6294 104.578 56.2794 105.518C68.5094 112.468 80.7395 112.598 93.1095 105.858C95.2094 104.708 96.0194 103.348 95.9494 100.938C95.7794 95.0481 95.8994 94.9981 90.0794 95.0681C88.1194 95.0981 85.6294 94.1581 84.3394 95.5481C83.1794 96.7981 84.0394 99.2081 83.9794 101.098C83.8194 105.998 79.8294 109.998 75.0194 110.038C69.9894 110.078 66.0495 106.118 65.9995 100.998C65.9661 97.0314 63.9794 95.0481 60.0394 95.0481L60.0294 95.0381ZM74.8895 48.2381C77.4595 48.2381 80.0395 48.1781 82.6095 48.2581C84.0595 48.3081 84.8394 47.8981 84.6694 46.3181C84.5194 44.8481 85.3494 42.7381 84.2794 42.0681C83.0694 41.3081 81.7394 43.0981 80.5494 43.8881C74.9694 47.5781 74.9995 47.5881 69.3595 43.8481C68.1695 43.0581 66.8295 41.2881 65.6395 41.9881C64.5295 42.6481 65.3594 44.7581 65.2094 46.2181C65.0294 47.9181 65.8694 48.3181 67.4094 48.2581C69.8994 48.1581 72.3895 48.2281 74.8795 48.2281L74.8895 48.2381ZM89.7994 92.0881C91.2094 92.0881 92.6194 91.9981 94.0194 92.1081C95.8994 92.2681 95.9194 91.1481 95.9194 89.7781C95.9194 88.3681 95.8094 87.3681 93.9694 87.4381C91.2394 87.5381 88.5094 87.5181 85.7794 87.4381C84.3694 87.3981 83.9894 87.9281 83.9094 89.3081C83.7894 91.3581 84.2094 92.4781 86.5694 92.1181C87.6194 91.9581 88.7194 92.0881 89.7894 92.0881H89.7994ZM59.9094 92.0881C61.3994 92.0881 62.8895 92.0081 64.3695 92.1081C66.2595 92.2281 66.0095 90.9581 65.9895 89.8181C65.9695 88.7181 66.3594 87.4081 64.4294 87.4481C61.5394 87.5181 58.6395 87.4981 55.7495 87.4481C54.4295 87.4281 54.1394 88.0581 54.0394 89.2681C53.8694 91.3181 54.3394 92.4481 56.6894 92.1081C57.7394 91.9581 58.8394 92.0781 59.9094 92.0781V92.0881ZM69.4895 39.9081C74.4095 44.2381 76.9995 44.1681 80.0095 39.9081H69.4895Z" fill="#416783"/>
<path d="M98.9494 101.488C98.9494 96.1581 98.8894 91.5281 98.9794 86.8981C99.0094 85.2181 98.5794 84.5381 96.7694 84.5781C92.1994 84.6881 87.6194 84.6781 83.0394 84.5781C81.3594 84.5481 80.9194 85.1781 80.9494 86.7581C81.0294 91.1681 80.9994 95.5681 80.9694 99.9781C80.9394 103.978 78.4594 106.818 74.9794 106.868C71.4594 106.928 68.9894 104.148 68.9794 100.078C68.9694 95.5881 68.9295 91.0981 68.9995 86.6081C69.0295 85.0981 68.5395 84.5581 67.0095 84.5781C62.3495 84.6481 57.6894 84.6681 53.0294 84.5781C51.2994 84.5381 50.9494 85.2581 50.9794 86.7981C51.0594 91.4481 51.0095 96.0981 51.0095 100.928C49.6795 100.668 49.0994 99.6981 48.4294 98.9481C42.4494 92.3281 39.2695 84.4981 39.1295 75.6081C38.9495 64.4681 39.1294 53.3281 39.0494 42.1781C39.0394 40.3681 39.4894 39.6981 41.4094 39.7381C47.5694 39.8481 53.7295 39.8581 59.8795 39.7381C61.9195 39.6981 62.4895 40.4181 62.3695 42.3381C62.2295 44.6581 62.3894 46.9981 62.3194 49.3181C62.2794 50.6981 62.7594 51.2181 64.1894 51.2081C71.3494 51.1581 78.4994 51.1481 85.6594 51.2081C87.2194 51.2181 87.6895 50.6481 87.6395 49.1681C87.5595 46.6781 87.6694 44.1781 87.5994 41.6881C87.5694 40.3181 88.0394 39.7481 89.4694 39.7581C96.0394 39.8081 102.619 39.7881 109.189 39.7681C110.289 39.7681 110.899 40.0881 110.869 41.3281C110.589 54.4581 111.709 67.6181 110.259 80.6981C109.379 88.6981 105.389 95.4281 98.9294 101.478L98.9494 101.488ZM74.9694 80.2981C83.2294 80.2981 89.2394 73.1981 87.9594 64.9581C87.8294 64.1281 87.2194 63.3181 88.1994 62.4581C89.7694 61.0981 90.5395 62.0381 91.6195 63.1681C94.8095 66.5281 99.6694 67.0081 103.449 64.4881C107.149 62.0281 108.619 57.3881 106.989 53.2981C105.309 49.0781 101.089 46.8181 96.4895 47.6781C92.0795 48.5081 89.3194 51.7881 89.0394 56.9381C88.9594 58.4381 88.1395 58.9381 87.1295 59.5281C85.9495 60.2181 85.5194 59.1881 84.9294 58.5581C79.2194 52.4681 70.8394 52.5381 64.9394 58.7181C64.3794 59.3081 63.9194 60.1681 62.9094 59.5381C62.0894 59.0281 61.0095 58.7381 60.9995 57.4681C60.9995 56.9681 60.9994 56.4681 60.9394 55.9781C60.3694 51.2381 57.1794 48.0381 52.5394 47.5481C48.2594 47.0981 44.2595 49.6981 42.8795 53.8381C41.5195 57.9081 43.1894 62.3881 46.8994 64.6681C50.5694 66.9281 55.3094 66.2481 58.5394 63.0181C59.2394 62.3181 59.6594 61.1481 61.1494 62.0081C62.5094 62.7981 62.2894 63.7081 62.0894 64.9281C60.7194 73.1581 66.7395 80.2881 74.9995 80.2881L74.9694 80.2981ZM88.0494 79.6681C87.2094 78.7981 86.6994 77.8981 85.5794 78.3381C84.6094 78.7181 84.5794 79.5481 84.5694 80.4081C84.5594 81.3381 84.6794 82.8981 85.4494 82.6881C87.3194 82.1981 89.1294 82.9481 90.8494 82.5281C91.5294 82.3581 91.8095 81.8381 92.6395 82.4581C94.2595 83.6881 95.1294 82.7781 95.2294 81.0681C95.3394 79.0781 95.2595 77.0781 95.2495 75.0781C95.2495 74.0281 94.8294 73.2781 93.6594 73.2781C92.5594 73.2781 92.3694 74.0781 92.2694 74.9781C92.1594 75.9781 92.5294 77.7981 90.5794 75.9381C89.7494 75.1481 88.8095 75.8281 88.4895 76.8481C88.2495 77.6181 88.2294 78.4581 88.0594 79.6481L88.0494 79.6681ZM54.7094 78.2581C54.8294 79.3381 54.3194 80.8281 54.9594 82.1281C56.1494 84.5381 58.5694 80.3081 59.9194 82.9481C60.0794 83.2681 61.0695 82.7281 61.2495 82.1581C61.8395 80.3081 61.8494 78.4081 61.2694 76.5581C61.0094 75.7181 60.1394 75.4781 59.4094 75.8881C58.0894 76.6281 57.6594 76.2381 57.6594 74.8381C57.6594 73.8981 57.2394 73.2181 56.1594 73.2881C55.1294 73.3481 54.7294 74.0281 54.7194 74.9681C54.6994 75.9581 54.7194 76.9581 54.7194 78.2681L54.7094 78.2581ZM46.2595 71.6881C45.0495 72.8681 43.0695 73.9281 42.8695 75.2581C42.7095 76.3181 45.2694 77.1881 45.9794 78.7481C47.2494 77.6481 48.5094 76.5381 49.7794 75.4381C48.6194 74.2081 47.4695 72.9781 46.2595 71.6881ZM107.359 75.3181C107.299 74.7281 106.889 74.5781 106.549 74.3481C105.549 73.6781 102.309 73.6581 101.219 74.2181C99.6594 75.0281 99.8794 75.6281 101.299 76.3181C102.319 76.8181 105.439 76.8281 106.409 76.2181C106.619 76.0881 106.859 75.9881 107.029 75.8281C107.189 75.6681 107.279 75.4381 107.359 75.3081V75.3181ZM62.4194 80.5781C62.4494 81.6381 62.2994 82.9481 63.8394 82.9481C65.2694 82.9481 65.4095 81.7681 65.3895 80.6281C65.3795 79.5281 65.3894 78.3281 63.8994 78.2881C62.2994 78.2381 62.4694 79.5181 62.4194 80.5881V80.5781Z" fill="#CBE2F0"/>
<path d="M60.0294 95.0381C63.9694 95.0381 65.9561 97.0215 65.9894 100.988C66.0294 106.108 69.9795 110.068 75.0095 110.028C79.8195 109.998 83.8094 105.998 83.9694 101.088C84.0294 99.1881 83.1694 96.7781 84.3294 95.5381C85.6194 94.1581 88.1094 95.0881 90.0694 95.0581C95.8894 94.9781 95.7794 95.0381 95.9394 100.928C96.0094 103.338 95.1994 104.698 93.0994 105.848C80.7294 112.598 68.4993 112.468 56.2693 105.508C54.6193 104.568 53.7394 103.448 54.0594 101.528C54.0894 101.368 54.0594 101.198 54.0594 101.028C54.0594 97.0281 56.046 95.0281 60.0193 95.0281L60.0294 95.0381Z" fill="#CBE2F0"/>
<path d="M74.8895 48.2381C72.3995 48.2381 69.8994 48.1581 67.4194 48.2681C65.8694 48.3281 65.0295 47.9281 65.2195 46.2281C65.3795 44.7681 64.5394 42.6581 65.6494 41.9981C66.8294 41.2881 68.1695 43.068 69.3695 43.858C75.0095 47.598 74.9794 47.5981 80.5594 43.8981C81.7494 43.1081 83.0794 41.3181 84.2894 42.0781C85.3494 42.7481 84.5194 44.8581 84.6794 46.3281C84.8394 47.9081 84.0695 48.3081 82.6195 48.2681C80.0495 48.1881 77.4694 48.2481 74.8994 48.2481L74.8895 48.2381Z" fill="#CBE2F0"/>
<path d="M89.7993 92.0881C88.7193 92.0881 87.6294 91.9581 86.5794 92.1181C84.2194 92.4881 83.7993 91.3581 83.9193 89.3081C83.9993 87.9381 84.3793 87.3981 85.7893 87.4381C88.5193 87.5181 91.2494 87.5381 93.9794 87.4381C95.8094 87.3681 95.9294 88.3781 95.9294 89.7781C95.9294 91.1481 95.9093 92.2581 94.0293 92.1081C92.6293 91.9881 91.2194 92.0881 89.8094 92.0881H89.7993Z" fill="#CBE2F0"/>
<path d="M59.9094 92.0882C58.8294 92.0882 57.7394 91.9582 56.6894 92.1182C54.3394 92.4582 53.8694 91.3282 54.0394 89.2782C54.1394 88.0682 54.4395 87.4382 55.7495 87.4582C58.6395 87.4982 61.5394 87.5282 64.4294 87.4582C66.3594 87.4082 65.9595 88.7282 65.9895 89.8282C66.0195 90.9682 66.2695 92.2382 64.3695 92.1182C62.8895 92.0182 61.3894 92.0982 59.9094 92.0982V92.0882Z" fill="#CBE2F0"/>
<path d="M69.4894 39.9081H80.0095C76.9995 44.1681 74.4094 44.2381 69.4894 39.9081Z" fill="#CBE2F0"/>
<path d="M74.9694 80.2981C66.7094 80.2981 60.6894 73.1681 62.0594 64.9381C62.2594 63.7181 62.4794 62.8081 61.1194 62.0181C59.6294 61.1581 59.2094 62.3281 58.5094 63.0281C55.2794 66.2581 50.5494 66.9481 46.8694 64.6781C43.1594 62.3981 41.4994 57.9081 42.8494 53.8481C44.2294 49.7081 48.2294 47.0981 52.5094 47.5581C57.1494 48.0481 60.3493 51.2481 60.9093 55.9881C60.9693 56.4781 60.9594 56.9781 60.9694 57.4781C60.9794 58.7481 62.0694 59.0381 62.8794 59.5481C63.8894 60.1781 64.3493 59.3181 64.9093 58.7281C70.8093 52.5381 79.1893 52.4781 84.8993 58.5681C85.4893 59.1981 85.9294 60.2281 87.0994 59.5381C88.1094 58.9581 88.9294 58.4481 89.0094 56.9481C89.2894 51.7981 92.0494 48.5181 96.4594 47.6881C101.069 46.8281 105.289 49.0781 106.959 53.3081C108.589 57.3981 107.119 62.0381 103.419 64.4981C99.6494 67.0081 94.7894 66.5281 91.5894 63.1781C90.5194 62.0481 89.7394 61.1081 88.1694 62.4681C87.1794 63.3281 87.7994 64.1481 87.9294 64.9681C89.2094 73.1981 83.2094 80.3081 74.9394 80.3081L74.9694 80.2981ZM75.0694 57.1781C71.2294 57.0981 68.3394 58.8181 66.3694 61.9981C64.3894 65.2081 64.3694 68.5981 66.0694 71.9581C66.7094 73.2181 67.4294 74.0381 68.2494 72.0581C68.6694 71.0381 69.3094 70.0881 70.2294 69.5581C71.6594 68.7281 72.0593 67.9381 71.4093 66.2481C70.5893 64.0781 71.9893 61.9881 74.1493 61.4881C76.2993 60.9881 79.0894 62.5681 78.5894 64.5281C77.7494 67.7581 79.2794 69.4281 81.2894 71.1881C81.4694 71.3381 81.5094 71.6481 81.6694 71.8281C82.0794 72.2781 81.9294 73.3381 82.8394 73.1781C83.5294 73.0581 83.7394 72.2581 84.0394 71.6781C87.4094 65.1281 82.5194 57.2181 75.0794 57.1681L75.0694 57.1781ZM45.4794 56.7481C45.4694 60.1481 48.2394 62.9781 51.5994 63.0081C54.9294 63.0281 57.8594 60.1981 57.9194 56.8981C57.9794 53.4181 55.1094 50.5181 51.6194 50.5681C48.1594 50.6181 45.4894 53.2981 45.4694 56.7481H45.4794ZM98.2894 50.5681C94.8694 50.5581 92.1093 53.2581 92.0293 56.6881C91.9593 60.0781 94.9594 63.0581 98.3895 63.0081C101.759 62.9581 104.499 60.1181 104.469 56.7181C104.439 53.2581 101.749 50.5881 98.2793 50.5781L98.2894 50.5681Z" fill="#416783"/>
<path d="M88.0494 79.6681C88.2194 78.4681 88.2394 77.6281 88.4794 76.8681C88.7994 75.8481 89.7394 75.1681 90.5694 75.9581C92.5294 77.8181 92.1494 75.9981 92.2594 74.9981C92.3594 74.0981 92.5493 73.2981 93.6493 73.2981C94.8193 73.2981 95.2294 74.0381 95.2394 75.0981C95.2394 77.0981 95.3294 79.0981 95.2194 81.0881C95.1294 82.7981 94.2494 83.7081 92.6294 82.4781C91.7994 81.8481 91.5194 82.3781 90.8394 82.5481C89.1194 82.9681 87.3094 82.2181 85.4394 82.7081C84.6594 82.9081 84.5494 81.3481 84.5594 80.4281C84.5594 79.5781 84.5994 78.7381 85.5694 78.3581C86.6894 77.9181 87.1993 78.8081 88.0393 79.6881L88.0494 79.6681Z" fill="#416783"/>
<path d="M54.7094 78.2581C54.7094 76.9481 54.6994 75.9581 54.7094 74.9581C54.7294 74.0181 55.1294 73.3381 56.1494 73.2781C57.2294 73.2081 57.6494 73.8881 57.6494 74.8281C57.6494 76.2281 58.0794 76.6182 59.3994 75.8782C60.1294 75.4682 60.9895 75.7081 61.2595 76.5481C61.8295 78.3981 61.8294 80.2981 61.2394 82.1481C61.0594 82.7181 60.0794 83.2581 59.9094 82.9381C58.5594 80.2981 56.1394 84.5281 54.9494 82.1181C54.3094 80.8181 54.8194 79.3381 54.6994 78.2481L54.7094 78.2581Z" fill="#416783"/>
<path d="M46.2594 71.6881C47.4694 72.9781 48.6193 74.2081 49.7793 75.4381C48.5093 76.5381 47.2494 77.6481 45.9794 78.7481C45.2694 77.1881 42.7094 76.3181 42.8694 75.2581C43.0694 73.9281 45.0494 72.8681 46.2594 71.6881Z" fill="#416783"/>
<path d="M107.359 75.3181C107.279 75.4481 107.199 75.6781 107.029 75.8381C106.859 76.0081 106.619 76.0981 106.409 76.2281C105.439 76.8381 102.319 76.8281 101.299 76.3281C99.8794 75.6281 99.6594 75.0281 101.219 74.2281C102.309 73.6681 105.549 73.6781 106.549 74.3581C106.889 74.5881 107.289 74.7381 107.359 75.3281V75.3181Z" fill="#416783"/>
<path d="M62.4194 80.5682C62.4694 79.5082 62.2994 78.2282 63.8994 78.2782C65.3994 78.3182 65.3795 79.5182 65.3895 80.6182C65.3995 81.7582 65.2594 82.9382 63.8394 82.9382C62.2994 82.9382 62.4494 81.6282 62.4194 80.5682Z" fill="#416783"/>
<path d="M75.0694 57.1781C82.5094 57.2281 87.3994 65.1281 84.0294 71.6881C83.7294 72.2681 83.5195 73.0681 82.8295 73.1881C81.9195 73.3481 82.0694 72.2881 81.6594 71.8381C81.4994 71.6581 81.4594 71.3581 81.2794 71.1981C79.2694 69.4281 77.7495 67.7681 78.5795 64.5381C79.0895 62.5781 76.2895 60.9981 74.1395 61.4981C71.9795 61.9981 70.5694 64.0881 71.3994 66.2581C72.0494 67.9581 71.6495 68.7481 70.2195 69.5681C69.2995 70.0981 68.6595 71.0481 68.2395 72.0681C67.4195 74.0481 66.6894 73.2381 66.0594 71.9681C64.3594 68.5981 64.3795 65.2181 66.3595 62.0081C68.3195 58.8181 71.2194 57.0981 75.0594 57.1881L75.0694 57.1781Z" fill="#CBE2F0"/>
<path d="M45.4794 56.7481C45.4894 53.2981 48.1595 50.6081 51.6295 50.5681C55.1095 50.5181 57.9894 53.4181 57.9294 56.8981C57.8694 60.1981 54.9394 63.0281 51.6094 63.0081C48.2494 62.9881 45.4794 60.1481 45.4894 56.7481H45.4794ZM51.6094 60.3681C52.8194 60.2081 54.4894 60.8681 54.8694 58.9781C55.1594 57.5381 55.4594 55.9081 53.4694 55.2481C52.9094 55.0581 52.7794 54.5881 52.7394 54.0681C52.6694 53.3581 52.4294 52.7281 51.6194 52.6481C50.7694 52.5581 50.5593 53.2581 50.2693 53.8581C50.0193 54.3781 49.7294 54.9181 49.3194 55.2981C48.0794 56.4481 48.1794 57.8681 48.5994 59.2281C49.0694 60.7181 50.4794 60.2581 51.6094 60.3681Z" fill="#CBE2F0"/>
<path d="M98.2893 50.5681C101.749 50.5781 104.449 53.2481 104.479 56.7081C104.509 60.1181 101.769 62.9481 98.3993 62.9981C94.9693 63.0481 91.9693 60.0681 92.0393 56.6781C92.1093 53.2481 94.8694 50.5481 98.2994 50.5581L98.2893 50.5681ZM102.399 55.5481C101.959 51.4281 98.4593 54.2981 96.5293 53.4381C95.1693 52.8281 94.1394 54.1881 94.1394 55.7881C94.1394 57.2681 96.9293 60.7281 98.1593 60.8281C99.4293 60.9381 102.389 57.4181 102.409 55.5481H102.399Z" fill="#CBE2F0"/>
<path d="M51.6094 60.3681C50.4794 60.2581 49.0594 60.7181 48.5994 59.2281C48.1794 57.8681 48.0794 56.4481 49.3194 55.2981C49.7294 54.9181 50.0193 54.3681 50.2693 53.8581C50.5693 53.2481 50.7694 52.5581 51.6194 52.6481C52.4294 52.7381 52.6694 53.3581 52.7394 54.0681C52.7894 54.5881 52.9094 55.0581 53.4694 55.2481C55.4694 55.9181 55.1694 57.5381 54.8694 58.9781C54.4894 60.8681 52.8194 60.2081 51.6094 60.3681Z" fill="#416783"/>
<path d="M102.399 55.5481C102.379 57.4181 99.4194 60.9381 98.1494 60.8281C96.9194 60.7281 94.1395 57.2681 94.1295 55.7881C94.1295 54.1881 95.1593 52.8281 96.5193 53.4381C98.4493 54.2981 101.959 51.4381 102.389 55.5481H102.399Z" fill="#416783"/>
</svg>
