<svg width="150" height="150" viewBox="0 0 150 150" fill="none" xmlns="http://www.w3.org/2000/svg">
<circle cx="75.065" cy="75.2992" r="74.3434" fill="#634F95" fill-opacity="0.3"/>
<path d="M75.1948 36.8301C87.2648 36.8301 99.3347 36.8701 111.395 36.7901C113.375 36.7801 114.135 37.1701 114.105 39.3501C113.965 51.8201 114.165 64.2901 113.915 76.7501C113.505 96.9001 96.0548 113.38 75.8148 113.81C57.9348 114.19 40.7848 101.61 36.9448 82.9201C36.3448 79.9801 36.0748 77.0101 36.0748 74.0101C36.0748 62.4601 36.1347 50.9001 36.0247 39.3501C36.0047 37.1801 36.7448 36.7701 38.7348 36.7801C50.8848 36.8601 63.0348 36.8201 75.1848 36.8201L75.1948 36.8301ZM99.9647 40.1501C99.6047 40.0601 99.4548 39.9801 99.3048 39.9801C79.9948 39.9801 60.6848 39.9801 41.3748 39.9301C39.5848 39.9301 39.3448 40.7001 39.3648 42.1801C39.4148 48.3301 39.3348 54.4801 39.4048 60.6301C39.4648 66.3601 39.1948 72.0901 39.5748 77.8301C39.6948 79.6301 40.4048 80.0701 42.0348 79.9801C44.1148 79.8701 46.2047 79.8301 48.2747 79.9801C50.6747 80.1601 51.4347 79.3201 50.7147 77.0001C50.4747 76.2301 50.5747 75.3501 50.5847 74.5201C50.5847 73.7201 50.4048 72.7001 51.7548 72.8601C52.7548 72.9801 53.7748 73.1001 53.8248 74.5101C53.8648 75.5801 54.1048 76.6501 54.1248 77.7301C54.1548 79.4501 55.0048 80.0301 56.6648 79.9701C58.9948 79.8801 61.3248 79.9401 63.6548 79.9501C68.1748 79.9701 70.1948 81.9701 70.2048 86.4801C70.2148 93.6301 70.2748 100.78 70.1648 107.93C70.1348 109.91 70.7948 110.57 72.7248 110.57C75.6448 110.57 78.5248 110.5 81.4248 110.05C96.3648 107.72 109.325 94.0001 110.495 78.9501C111.225 69.5001 110.705 60.0101 110.745 50.5401C110.745 50.4201 110.555 50.3101 110.245 49.9301C107.105 53.1101 104.085 56.2901 100.895 59.3101C99.6347 60.5101 99.5348 61.4701 100.305 62.9601C102.745 67.7001 103.195 72.8001 102.505 78.0001C102.415 78.6801 102.805 80.4801 101.155 80.0001C100.125 79.7001 98.8648 79.1001 99.2648 77.3001C99.9248 74.3401 99.5748 71.3301 98.8148 68.4201C98.4048 66.8501 98.2848 64.5901 96.7648 64.1401C95.6548 63.8101 94.5248 65.8101 93.4448 66.8201C92.3548 67.8401 91.2948 68.9101 90.2648 69.9901C89.6148 70.6801 88.8548 71.1101 87.9348 71.3401C84.5448 72.1901 81.1648 73.0401 77.7948 73.9601C76.0548 74.4401 75.9448 73.7201 76.3448 72.3301C77.1248 69.6201 77.9348 66.9001 78.5348 64.1501C78.9648 62.2001 79.8548 60.6701 81.2848 59.2701C86.9848 53.6801 92.6148 48.0101 98.2448 42.3601C98.8648 41.7401 99.7048 41.2601 99.9748 40.1201L99.9647 40.1501ZM107.895 39.9501C106.735 40.1001 105.575 39.6801 104.575 40.6901C97.3848 47.9401 90.0948 55.1001 82.9548 62.4001C81.5748 63.8201 80.8448 65.7601 82.0948 67.7901C83.1148 69.4501 85.4348 68.9201 87.7448 67.7601C88.2448 67.5101 88.6048 66.9901 89.0148 66.5801C91.0148 64.5901 93.0148 62.5901 95.0048 60.6001C99.8748 55.7301 104.735 50.8401 109.635 46.0001C111.275 44.3801 110.765 42.4001 110.445 40.6201C110.225 39.3801 108.715 40.2301 107.875 39.9601L107.895 39.9501ZM67.0847 97.2501C67.0847 93.6801 67.1148 90.1101 67.0748 86.5401C67.0448 83.9201 66.0648 82.9501 63.4148 82.9401C56.5148 82.9101 49.6148 82.9201 42.7248 82.9401C40.3448 82.9401 40.1347 83.3601 40.8347 85.5701C41.2847 87.0101 42.2647 87.1601 43.5247 87.1501C48.6747 87.1101 53.8348 87.1201 58.9848 87.1501C61.9248 87.1601 62.6147 87.8901 62.6447 90.8701C62.6647 93.2801 62.6447 95.6801 62.6447 98.0901C62.6447 101.08 62.6448 104.07 62.6548 107.05C62.6648 109.39 64.7148 109.31 66.0748 109.46C67.6548 109.63 67.0248 108.04 67.0448 107.21C67.1248 103.89 67.0748 100.57 67.0748 97.2501H67.0847ZM59.5448 98.6701C59.5448 96.4301 59.5248 94.1901 59.5548 91.9501C59.5748 90.9101 59.4348 90.1901 58.1048 90.2101C53.5348 90.2501 48.9647 90.2301 44.3947 90.2201C43.3547 90.2201 43.0048 90.5701 43.5448 91.5601C46.9248 97.8801 51.7348 102.78 58.0348 106.23C59.3648 106.96 59.5748 106.32 59.5548 105.15C59.5148 102.99 59.5448 100.83 59.5448 98.6801V98.6701Z" fill="#685897"/>
<path d="M99.9647 40.1501C99.6947 41.2801 98.8547 41.7601 98.2347 42.3901C92.6047 48.0501 86.9747 53.7201 81.2747 59.3001C79.8447 60.7001 78.9547 62.2301 78.5247 64.1801C77.9147 66.9301 77.1147 69.6501 76.3347 72.3601C75.9347 73.7501 76.0447 74.4701 77.7847 73.9901C81.1547 73.0701 84.5347 72.2201 87.9247 71.3701C88.8447 71.1401 89.6048 70.7101 90.2548 70.0201C91.2848 68.9401 92.3348 67.8701 93.4347 66.8501C94.5148 65.8401 95.6548 63.8401 96.7548 64.1701C98.2748 64.6201 98.3947 66.8801 98.8047 68.4501C99.5547 71.3601 99.9148 74.3701 99.2548 77.3301C98.8548 79.1301 100.115 79.7301 101.145 80.0301C102.795 80.5101 102.405 78.7101 102.495 78.0301C103.185 72.8301 102.735 67.7301 100.295 62.9901C99.5247 61.4901 99.6248 60.5301 100.885 59.3401C104.065 56.3201 107.095 53.1301 110.235 49.9601C110.555 50.3301 110.735 50.4501 110.735 50.5701C110.705 60.0401 111.225 69.5201 110.485 78.9801C109.315 94.0301 96.3647 107.75 81.4147 110.08C78.5147 110.53 75.6347 110.6 72.7147 110.6C70.7847 110.6 70.1247 109.94 70.1547 107.96C70.2647 100.81 70.2048 93.6601 70.1948 86.5101C70.1948 82.0001 68.1647 80.0001 63.6447 79.9801C61.3147 79.9701 58.9847 79.9101 56.6547 80.0001C55.0047 80.0601 54.1547 79.4901 54.1147 77.7601C54.0947 76.6901 53.8448 75.6201 53.8148 74.5401C53.7648 73.1301 52.7447 73.0101 51.7447 72.8901C50.3947 72.7201 50.5848 73.7501 50.5748 74.5501C50.5748 75.3801 50.4648 76.2601 50.7048 77.0301C51.4348 79.3501 50.6648 80.1901 48.2648 80.0101C46.1948 79.8601 44.1047 79.9001 42.0247 80.0101C40.3947 80.0901 39.6848 79.6501 39.5648 77.8601C39.1848 72.1301 39.4547 66.3901 39.3947 60.6601C39.3247 54.5101 39.4147 48.3601 39.3547 42.2101C39.3447 40.7301 39.5747 39.9601 41.3647 39.9601C60.6747 40.0201 79.9847 40.0001 99.2947 40.0101C99.4447 40.0101 99.6048 40.0801 99.9548 40.1801L99.9647 40.1501ZM56.1147 42.0001C55.9447 42.0001 55.7847 42.0001 55.6147 42.0001C47.3847 42.1301 41.0847 49.0201 41.4747 57.4401C41.8247 65.0701 49.0448 71.4001 56.6847 70.7801C65.2248 70.0801 71.2747 62.8501 70.0447 54.5101C69.7447 52.5001 70.3747 52.1001 72.0447 51.7801C75.6247 51.1001 79.1547 51.1901 82.6647 52.1301C84.3047 52.5701 85.1648 51.3701 85.5048 50.3401C85.9148 49.1301 84.4147 49.1401 83.6547 48.9501C79.3347 47.8301 74.9547 47.5901 70.6147 48.7701C69.0247 49.2001 68.1147 48.8801 67.0947 47.5101C64.4047 43.8801 60.5947 42.2101 56.1147 42.0001ZM79.1547 96.5401C77.3947 97.0201 75.8947 96.8601 74.4047 96.8201C73.2747 96.7901 72.4847 96.8201 72.4747 98.3101C72.4747 99.7501 73.0847 100.27 74.4247 100.2C76.2447 100.1 78.0848 100.09 79.8848 99.8801C81.3448 99.7101 82.5747 99.9101 83.9047 100.65C90.2847 104.17 98.0747 101.47 101.095 94.8201C103.915 88.6001 100.835 80.8701 94.5447 78.4201C87.5147 75.6801 80.0947 79.1601 77.9247 86.2201C76.8447 89.7301 77.4247 93.0901 79.1447 96.5401H79.1547Z" fill="#E1DAFA"/>
<path d="M107.895 39.95C108.735 40.23 110.245 39.37 110.465 40.61C110.775 42.39 111.295 44.37 109.655 45.99C104.755 50.83 99.8947 55.72 95.0247 60.59C93.0247 62.59 91.0347 64.58 89.0347 66.57C88.6247 66.98 88.2648 67.5 87.7648 67.75C85.4548 68.91 83.1348 69.44 82.1148 67.78C80.8648 65.74 81.5847 63.8 82.9747 62.39C90.1147 55.09 97.3947 47.93 104.595 40.68C105.595 39.67 106.755 40.09 107.915 39.94L107.895 39.95Z" fill="#E1DAFA"/>
<path d="M67.0847 97.2501C67.0847 100.57 67.1347 103.89 67.0547 107.21C67.0347 108.04 67.6647 109.63 66.0847 109.46C64.7147 109.31 62.6747 109.39 62.6647 107.05C62.6447 104.06 62.6647 101.07 62.6547 98.0901C62.6547 95.6801 62.6747 93.2801 62.6547 90.8701C62.6247 87.8801 61.9247 87.1601 58.9947 87.1501C53.8447 87.1201 48.6847 87.1201 43.5347 87.1501C42.2647 87.1501 41.2947 87.0101 40.8447 85.5701C40.1447 83.3601 40.3547 82.9501 42.7347 82.9401C49.6347 82.9201 56.5347 82.9101 63.4247 82.9401C66.0747 82.9501 67.0447 83.9201 67.0847 86.5401C67.1347 90.1101 67.0947 93.6801 67.0947 97.2501H67.0847Z" fill="#E1DAFA"/>
<path d="M59.5447 98.6701C59.5447 100.83 59.5147 102.99 59.5548 105.14C59.5748 106.32 59.3647 106.95 58.0347 106.22C51.7347 102.77 46.9247 97.8601 43.5447 91.5501C43.0147 90.5601 43.3547 90.2101 44.3947 90.2101C48.9647 90.2201 53.5347 90.2401 58.1047 90.2001C59.4247 90.1901 59.5648 90.9101 59.5548 91.9401C59.5247 94.1801 59.5448 96.4201 59.5548 98.6601L59.5447 98.6701Z" fill="#E1DAFA"/>
<path d="M56.1148 42C60.5948 42.22 64.4047 43.88 67.0947 47.51C68.1047 48.88 69.0248 49.2 70.6148 48.77C74.9648 47.59 79.3347 47.83 83.6547 48.95C84.4147 49.15 85.9148 49.13 85.5048 50.34C85.1648 51.37 84.3048 52.56 82.6648 52.13C79.1548 51.19 75.6348 51.11 72.0448 51.78C70.3748 52.1 69.7448 52.5 70.0448 54.51C71.2848 62.85 65.2248 70.08 56.6848 70.78C49.0448 71.41 41.8248 65.08 41.4748 57.44C41.0848 49.01 47.3848 42.13 55.6148 42C55.7848 42 55.9448 42 56.1148 42ZM67.1648 55.88C67.0448 55.27 66.9348 54.18 66.6048 53.17C65.1648 48.88 62.1848 46.11 57.7248 45.4C52.8348 44.62 48.8448 46.46 46.2548 50.7C43.8948 54.57 44.0148 58.59 46.4148 62.46C46.9548 63.34 47.5248 64.85 48.7248 62.74C52.7448 55.67 58.9648 55.65 62.9548 62.7C63.7448 64.09 64.2847 63.98 65.0347 62.88C66.3647 60.91 67.1248 58.75 67.1648 55.89V55.88ZM55.9047 67.57C57.4947 67.21 59.8347 67.7 60.3947 65.9C60.9047 64.28 59.5148 62.65 58.0748 61.55C56.6648 60.48 55.1348 60.48 53.6948 61.44C52.0948 62.51 50.8747 64.14 51.2747 65.98C51.5947 67.47 53.5548 67.18 54.8848 67.45C55.2048 67.52 55.5347 67.53 55.9047 67.57Z" fill="#685897"/>
<path d="M79.1548 96.54C77.4348 93.09 76.8548 89.73 77.9348 86.22C80.1048 79.15 87.5248 75.68 94.5548 78.42C100.835 80.87 103.925 88.59 101.105 94.82C98.0848 101.48 90.2948 104.17 83.9148 100.65C82.5848 99.91 81.3548 99.71 79.8948 99.88C78.0848 100.09 76.2548 100.1 74.4348 100.2C73.1048 100.27 72.4848 99.75 72.4848 98.31C72.4848 96.81 73.2848 96.79 74.4148 96.82C75.9048 96.86 77.4048 97.02 79.1648 96.54H79.1548ZM89.7048 98.83C94.6548 98.86 98.8948 94.72 98.8848 89.86C98.8848 85.01 94.6248 80.77 89.7648 80.76C84.8248 80.76 80.6748 84.87 80.6448 89.79C80.6248 94.77 84.6548 98.8 89.7048 98.83Z" fill="#685897"/>
<path d="M67.1647 55.8801C67.1247 58.7401 66.3547 60.9001 65.0347 62.8701C64.2847 63.9801 63.7448 64.0901 62.9548 62.6901C58.9648 55.6501 52.7347 55.6601 48.7247 62.7301C47.5247 64.8501 46.9547 63.3401 46.4147 62.4501C44.0247 58.5801 43.8947 54.5501 46.2547 50.6901C48.8447 46.4501 52.8347 44.6101 57.7247 45.3901C62.1847 46.1001 65.1647 48.8601 66.6047 53.1601C66.9447 54.1701 67.0447 55.2601 67.1647 55.8701V55.8801ZM60.6047 51.6301C60.5447 48.8001 58.2547 46.6401 55.4047 46.7301C52.6647 46.8201 50.5147 49.0401 50.5647 51.7201C50.6247 54.4201 53.0947 56.8001 55.7547 56.7001C58.3247 56.6101 60.6547 54.1701 60.6047 51.6301Z" fill="#E1DAFA"/>
<path d="M55.9048 67.5701C55.5348 67.5301 55.2048 67.5101 54.8848 67.4501C53.5648 67.1801 51.6048 67.4701 51.2748 65.9801C50.8748 64.1401 52.0948 62.5101 53.6948 61.4401C55.1348 60.4801 56.6648 60.4801 58.0748 61.5501C59.5148 62.6501 60.9048 64.2801 60.3948 65.9001C59.8248 67.7001 57.4948 67.2201 55.9048 67.5701Z" fill="#E1DAFA"/>
<path d="M89.7048 98.83C84.6648 98.8 80.6248 94.77 80.6448 89.79C80.6648 84.87 84.8248 80.75 89.7648 80.76C94.6248 80.76 98.8848 85.01 98.8848 89.86C98.8848 94.73 94.6548 98.87 89.7048 98.83ZM95.7048 87.11C95.5048 86.35 94.9048 85.9 94.3248 85.44C93.7248 84.97 93.2548 85.31 92.8148 85.74C92.2848 86.26 91.8048 86.85 91.2148 87.29C89.9248 88.26 89.1048 91 86.8148 88.54C86.7048 88.42 86.1548 88.56 85.9448 88.73C84.8748 89.59 83.7448 90.55 85.4748 91.8C86.6048 92.62 87.4848 95.03 88.8148 94.1C91.3448 92.34 93.3448 89.81 95.5648 87.59C95.6648 87.49 95.6648 87.28 95.7148 87.11H95.7048Z" fill="#E1DAFA"/>
<path d="M60.6047 51.63C60.6547 54.18 58.3348 56.61 55.7548 56.7C53.0948 56.8 50.6248 54.42 50.5648 51.72C50.5048 49.04 52.6647 46.82 55.4047 46.73C58.2547 46.64 60.5447 48.79 60.6047 51.63ZM55.5048 49.8C54.3648 49.96 53.6547 50.63 53.7247 51.75C53.7947 52.83 54.5147 53.63 55.6547 53.57C56.7747 53.52 57.4748 52.72 57.4348 51.61C57.3948 50.49 56.6648 49.86 55.5048 49.8Z" fill="#685897"/>
<path d="M95.7047 87.1101C95.6547 87.2801 95.6547 87.4901 95.5547 87.5901C93.3447 89.8101 91.3447 92.3401 88.8047 94.1001C87.4647 95.0301 86.5947 92.6201 85.4647 91.8001C83.7347 90.5501 84.8647 89.6001 85.9347 88.7301C86.1547 88.5601 86.6947 88.4201 86.8047 88.5401C89.1047 91.0001 89.9247 88.2601 91.2047 87.2901C91.7947 86.8501 92.2747 86.2601 92.8047 85.7401C93.2447 85.3101 93.7247 84.9701 94.3147 85.4401C94.8947 85.9001 95.4847 86.3501 95.6947 87.1101H95.7047Z" fill="#685897"/>
<path d="M55.5047 49.8C56.6647 49.86 57.3947 50.48 57.4347 51.61C57.4747 52.72 56.7746 53.52 55.6546 53.57C54.5146 53.62 53.7947 52.82 53.7247 51.75C53.6547 50.63 54.3647 49.96 55.5047 49.8Z" fill="#E1DAFA"/>
</svg>
