<svg width="149" height="150" viewBox="0 0 149 150" fill="none" xmlns="http://www.w3.org/2000/svg">
<circle cx="74.6079" cy="75.2992" r="74.3434" fill="#F0DDB4" fill-opacity="0.3"/>
<path d="M74.6857 36.7247C86.8457 36.7247 98.9957 36.7647 111.156 36.6847C113.206 36.6747 113.856 37.2247 113.846 39.3247C113.756 51.2947 113.956 63.2747 113.766 75.2447C113.466 94.2147 100.456 109.875 81.2757 113.325C59.9057 117.175 39.1757 102.675 35.8757 81.0147C35.5557 78.9447 35.4257 76.8947 35.4257 74.8147C35.4257 63.0847 35.4957 51.3647 35.3657 39.6347C35.3357 37.1547 36.1257 36.6347 38.4657 36.6547C50.5357 36.7747 62.6157 36.7047 74.6857 36.7047V36.7247ZM97.3257 68.5947C97.3257 71.0047 97.3257 73.4147 97.3257 75.8347C97.2957 86.2947 90.3157 95.0547 79.8857 97.7247C70.2057 100.205 59.1057 95.6047 54.6957 86.5047C52.9757 82.9547 50.9557 82.1647 47.5057 82.4447C45.6457 82.5947 45.1457 82.9247 45.9157 84.7247C46.5457 86.1847 47.3657 87.5947 45.7057 89.2147C43.0257 91.8347 43.1457 91.9547 45.3157 94.9947C45.6557 95.4647 46.0457 95.9147 46.3357 96.4147C46.9457 97.4547 47.7457 97.8547 48.7957 97.1347C51.6157 95.1747 53.9957 95.8747 56.2257 98.1647C56.7957 98.7547 57.4957 99.2647 58.2257 99.6447C60.1957 100.685 60.9757 102.255 60.3057 104.365C59.5457 106.775 60.5257 107.905 62.8357 108.315C63.5657 108.445 64.2657 108.765 64.9557 109.035C66.0657 109.475 66.9957 109.275 67.4157 108.125C68.6357 104.735 71.2057 104.165 74.3657 104.585C75.4257 104.725 76.5357 104.685 77.6057 104.585C79.0457 104.455 79.8557 105.035 80.5857 106.285C82.5057 109.595 82.5657 109.555 86.1557 108.375C86.6257 108.215 87.1057 108.075 87.5857 107.935C88.6657 107.615 89.4057 107.025 89.0457 105.785C88.0557 102.325 89.4957 100.095 92.5357 98.5747C93.2657 98.2047 93.9657 97.6747 94.5257 97.0747C95.9757 95.5347 97.4157 95.7147 99.1957 96.5647C102.626 98.1947 103.016 97.8847 103.016 94.1447C103.016 82.8347 103.016 71.5247 103.026 60.2147C103.026 59.4147 102.686 58.0947 103.476 57.9247C106.766 57.2047 104.296 55.9447 103.766 55.0747C102.946 53.7347 101.856 52.5547 100.946 51.2647C100.286 50.3147 99.7057 49.9747 98.8657 51.0847C97.6157 52.7447 96.2957 54.3547 95.0057 55.9847C94.2057 56.9947 94.2057 57.6647 95.7357 57.5347C97.1857 57.4147 97.3357 58.2447 97.3257 59.3947C97.2857 62.4747 97.3157 65.5447 97.3157 68.6247L97.3257 68.5947ZM54.1957 40.2247C49.6157 40.2247 45.0357 40.2747 40.4557 40.1947C38.9257 40.1647 38.4457 40.6447 38.4757 42.1747C38.5557 47.2447 38.5557 52.3147 38.4757 57.3947C38.4557 58.9747 38.8857 59.6547 40.5657 59.6047C43.6457 59.5047 46.7257 59.5147 49.8057 59.6047C51.3757 59.6547 51.8357 58.9947 51.7857 57.5347C51.7057 55.2947 51.8457 53.0447 51.7357 50.8047C51.6557 49.1847 52.2157 48.5947 53.8657 48.6447C57.1057 48.7447 60.3557 48.6747 63.6057 48.6747C69.9357 48.6747 69.8957 48.6747 69.7857 42.3447C69.7557 40.7847 69.3957 40.1447 67.6757 40.1947C63.1857 40.3147 58.6857 40.2347 54.1857 40.2347L54.1957 40.2247ZM89.7157 57.1247C91.0057 57.0147 91.2857 56.2247 91.7257 55.6847C93.9257 52.9747 96.1657 50.2847 98.2057 47.4647C99.4457 45.7547 100.206 45.3847 101.536 47.4047C103.416 50.2347 105.546 52.9147 107.646 55.6047C108.366 56.5247 108.896 57.6847 110.266 58.4247C110.266 52.6347 110.246 47.1647 110.286 41.6947C110.286 40.6147 109.876 40.2347 108.816 40.2347C102.996 40.2647 97.1657 40.2647 91.3457 40.2347C90.1957 40.2347 89.6957 40.6047 89.7057 41.8047C89.7457 46.8647 89.7257 51.9247 89.7257 57.1447L89.7157 57.1247ZM51.7557 70.8847C51.7557 68.5547 51.7357 66.2247 51.7557 63.9047C51.7657 62.8347 51.5057 62.1847 50.2357 62.2047C46.8257 62.2547 43.4057 62.2247 39.9957 62.2247C39.1857 62.2247 38.4757 62.3147 38.5057 63.3947C38.6157 68.2947 38.2557 73.1947 38.7157 78.0947C38.8357 79.3747 39.3957 79.8047 40.6257 79.7847C43.7057 79.7347 46.7857 79.7247 49.8657 79.7847C51.2857 79.8147 51.7957 79.2447 51.7657 77.8747C51.7157 75.5447 51.7557 73.2147 51.7557 70.8947V70.8847ZM86.9457 48.2047C86.9457 46.0447 86.9157 43.8847 86.9557 41.7247C86.9757 40.7347 86.7257 40.1947 85.5757 40.2147C81.6657 40.2647 77.7557 40.2447 73.8457 40.2147C72.9357 40.2147 72.4457 40.4947 72.4457 41.4847C72.4657 44.8947 72.4457 48.3047 72.4457 51.7047C72.4457 52.5647 72.6457 53.1047 73.7257 53.0547C77.8857 52.8747 81.8157 53.8047 85.4757 55.7847C86.9457 56.5747 86.9557 55.7447 86.9457 54.6847C86.9357 52.5247 86.9457 50.3647 86.9457 48.2047ZM105.726 91.0147C107.696 88.8447 108.526 86.2447 109.206 83.6047C110.996 76.6747 109.996 69.5847 110.286 62.5647C110.356 60.8747 109.866 60.2347 108.076 60.2247C106.206 60.2247 105.616 60.8447 105.686 62.6847C105.806 66.1647 105.726 69.6447 105.726 73.1247C105.726 79.0847 105.726 85.0447 105.726 91.0047V91.0147ZM74.6257 74.4747C75.6257 74.4747 76.6257 74.4847 77.6257 74.4747C82.9757 74.4047 82.3657 75.3347 81.8657 69.6447C81.7257 68.0947 81.1757 67.4347 79.5157 67.7847C76.9757 68.3247 74.3757 68.1747 71.8057 68.0547C67.2157 67.8447 67.2157 67.7847 67.0257 72.4347C67.0257 72.5147 67.0257 72.6047 67.0057 72.6847C66.7457 74.0047 67.3457 74.5047 68.6357 74.4747C70.6357 74.4347 72.6257 74.4647 74.6257 74.4747ZM54.4857 63.7647C58.3357 58.8247 62.9357 55.3747 68.8357 53.7247C69.6257 53.5047 69.8257 52.8747 69.6857 52.1547C69.5457 51.4047 68.9257 51.3747 68.3257 51.3747C64.1657 51.3747 60.0057 51.3747 55.8457 51.3747C55.1357 51.3747 54.4857 51.5447 54.4857 52.4447C54.4857 56.2147 54.4857 59.9847 54.4857 63.7547V63.7647ZM75.3657 83.4547C75.3657 83.4547 75.3657 83.4247 75.3657 83.4147C76.0357 83.4147 76.6957 83.3947 77.3657 83.4147C81.7357 83.5347 82.4557 82.7547 82.2357 78.3547C82.1857 77.3947 81.8457 77.0247 80.9057 77.0247C76.6657 77.0447 72.4257 77.0247 68.1757 77.0447C67.6857 77.0447 67.0057 77.0847 67.0357 77.7147C67.1357 79.5347 67.0457 81.4647 67.6757 83.1047C68.1357 84.3047 69.7657 83.4047 70.8757 83.4347C72.3657 83.4847 73.8657 83.4447 75.3657 83.4447V83.4547ZM80.6857 87.3947C80.8057 86.3047 80.1657 86.1847 79.4557 86.1447C76.2157 85.9247 72.9757 85.9247 69.7457 86.1447C68.6557 86.2147 68.1957 86.6947 68.5357 87.7447C69.3457 90.1947 70.2757 92.5947 72.1657 94.4647C73.3457 95.6347 74.7057 96.1447 76.1857 95.0847C78.8457 93.1747 79.7457 90.1947 80.6957 87.4047L80.6857 87.3947ZM74.6257 65.5447C75.3657 65.4547 76.1057 65.3447 76.8457 65.2947C81.4757 64.9847 81.5457 64.9047 79.3757 60.5847C78.3157 58.4647 77.3457 55.7447 74.5457 55.8147C71.6957 55.8847 70.6557 58.5947 69.6057 60.8247C67.6557 64.9747 67.7257 65.0247 72.1557 65.2947C72.9757 65.3447 73.7957 65.4647 74.6257 65.5447ZM59.4257 74.4747C60.2557 74.4747 61.0957 74.3947 61.9157 74.4947C63.7057 74.6947 64.3457 74.0847 64.4057 72.1747C64.5557 67.4347 64.6757 67.4347 60.3057 65.9047C60.0757 65.8247 59.8057 65.8047 59.5957 65.6747C58.0657 64.7247 57.1357 65.2647 56.5557 66.8247C56.2957 67.5247 55.9357 68.1847 55.6757 68.8747C53.6157 74.4347 53.6457 74.4847 59.4257 74.4847V74.4747ZM89.6957 74.4747C95.4457 74.4747 95.5357 74.3547 93.4957 68.9447C93.1757 68.0947 92.7657 67.2847 92.4057 66.4447C92.0057 65.5047 91.3657 64.7347 90.3357 65.3447C88.4257 66.4747 85.0757 65.7847 84.5057 68.1547C83.3557 72.8947 84.9557 74.4747 89.6957 74.4747ZM84.4057 82.7647C83.9557 83.7647 84.6457 84.2047 85.6857 84.4747C86.7257 84.7547 87.8257 84.9647 88.7557 85.4747C91.2157 86.8247 92.4157 85.8347 93.0657 83.4547C93.1957 82.9747 93.4457 82.5347 93.6157 82.0747C95.4157 77.1047 95.3657 77.0247 90.2357 77.0247C86.5357 77.0247 84.5924 78.9414 84.4057 82.7747V82.7647ZM64.7957 82.7547C64.7157 78.9347 62.7624 77.0247 58.9357 77.0247C58.0157 77.0247 57.0957 77.0847 56.1857 77.0147C54.8657 76.9147 54.3257 77.4247 54.6257 78.7547C55.1257 80.9547 55.7757 83.0847 56.8257 85.0947C57.3457 86.1047 58.1357 86.5847 59.0157 85.9247C60.7857 84.5947 63.7957 85.7747 64.8057 83.0147C64.8357 82.9447 64.8057 82.8547 64.7957 82.7647V82.7547ZM80.4357 56.6347C81.8457 59.2647 82.7357 61.3647 83.3757 63.5747C83.9157 65.4347 85.2057 64.1647 86.0057 63.9647C87.1957 63.6847 88.7157 63.7347 89.2757 62.2647C89.3557 62.0647 88.8657 61.5847 88.5657 61.3147C86.4157 59.3447 84.0157 57.7747 80.4357 56.6347ZM68.4657 56.7247C66.1057 57.4147 64.2957 58.3547 62.6857 59.6047C61.6157 60.4347 59.7057 61.1647 60.0357 62.5147C60.3457 63.7947 62.3757 63.7447 63.6957 64.1647C64.4557 64.4047 65.4157 64.9147 65.7457 63.6847C66.3557 61.3947 67.4657 59.2947 68.4757 56.7247H68.4657ZM80.8057 94.5047C83.0457 94.0247 84.6657 93.0747 86.1557 91.9547C87.3557 91.0547 89.5757 90.2347 89.0857 88.7947C88.6357 87.4547 86.2957 87.4147 84.7057 87.0247C83.8857 86.8247 83.5857 87.0947 83.3157 87.8947C82.6157 89.9847 81.7557 92.0247 80.8057 94.5047ZM68.4757 94.7147C67.5457 92.4647 66.6057 90.7747 66.1757 88.9647C65.7257 87.0647 64.8057 86.7247 63.1757 87.2947C62.3957 87.5647 61.6057 87.8247 60.8157 88.0947C59.7257 88.4647 59.5757 88.9647 60.4357 89.8447C62.5757 91.9947 65.0557 93.5547 68.4657 94.7147H68.4757ZM57.3557 104.465C57.3957 102.215 52.7657 98.7947 51.0557 99.3647C49.5657 99.8547 49.1057 100.515 50.5957 101.625C52.1857 102.795 53.7457 104.015 55.3357 105.185C56.8257 106.285 57.3857 105.655 57.3557 104.475V104.465ZM91.9957 105.925C94.6457 104.875 96.5957 103.065 98.6057 101.375C99.6257 100.515 99.4157 99.9647 98.1857 99.4747C95.5457 98.4347 94.6257 101.015 92.9057 101.885C91.1657 102.775 91.7057 104.325 91.9957 105.915V105.925ZM74.4957 110.745C75.4857 110.685 76.5557 110.565 77.6357 110.575C79.3757 110.585 79.3957 109.915 78.5557 108.665C77.5957 107.255 72.0257 106.715 70.9057 108.035C70.4457 108.575 69.7757 109.255 69.9857 109.985C70.2557 110.905 71.2557 110.465 71.9357 110.575C72.7557 110.695 73.5857 110.695 74.5057 110.745H74.4957ZM41.6157 88.9947C43.3357 87.3747 43.4457 84.0947 41.9657 82.8247C41.3957 82.3347 40.7157 82.4447 40.0857 82.6047C39.2257 82.8247 39.5657 83.5147 39.7157 84.0147C40.2257 85.6547 40.5757 87.3547 41.6057 88.9847L41.6157 88.9947ZM94.6957 63.8947C94.6957 62.9147 94.7157 62.0547 94.6957 61.1847C94.6757 60.4647 94.1957 60.1747 93.5457 60.1847C93.0557 60.1847 92.3657 60.1147 92.1357 60.3847C91.6657 60.9547 92.3257 61.4347 92.6657 61.8447C93.2157 62.5047 93.4257 63.4947 94.7057 63.8947H94.6957Z" fill="#846936"/>
<path d="M97.3257 68.5948C97.3257 65.5148 97.2957 62.4448 97.3357 59.3648C97.3457 58.2148 97.1957 57.3848 95.7457 57.5048C94.2157 57.6348 94.2157 56.9648 95.0157 55.9548C96.3057 54.3248 97.6257 52.7148 98.8757 51.0548C99.7157 49.9448 100.286 50.2848 100.956 51.2348C101.866 52.5248 102.956 53.7048 103.776 55.0448C104.306 55.9148 106.776 57.1748 103.486 57.8948C102.696 58.0648 103.036 59.3848 103.036 60.1848C103.016 71.4948 103.036 82.8048 103.026 94.1148C103.026 97.8548 102.626 98.1748 99.2057 96.5348C97.4257 95.6848 95.9757 95.5148 94.5357 97.0448C93.9757 97.6448 93.2757 98.1748 92.5457 98.5448C89.5057 100.075 88.0657 102.305 89.0557 105.755C89.4157 107.005 88.6757 107.595 87.5957 107.905C87.1157 108.045 86.6457 108.195 86.1657 108.345C82.5757 109.525 82.5157 109.555 80.5957 106.255C79.8757 105.015 79.0557 104.425 77.6157 104.555C76.5457 104.655 75.4357 104.695 74.3757 104.555C71.2157 104.145 68.6457 104.705 67.4257 108.095C67.0157 109.245 66.0757 109.445 64.9657 109.005C64.2757 108.725 63.5757 108.405 62.8457 108.285C60.5257 107.875 59.5557 106.745 60.3157 104.335C60.9757 102.225 60.2057 100.655 58.2357 99.6148C57.5057 99.2348 56.8057 98.7148 56.2357 98.1348C54.0057 95.8448 51.6257 95.1448 48.8057 97.1048C47.7557 97.8348 46.9557 97.4248 46.3457 96.3848C46.0557 95.8848 45.6657 95.4448 45.3257 94.9648C43.1557 91.9348 43.0357 91.8048 45.7157 89.1848C47.3657 87.5648 46.5557 86.1548 45.9257 84.6948C45.1557 82.8948 45.6557 82.5648 47.5157 82.4148C50.9657 82.1448 52.9757 82.9248 54.7057 86.4748C59.1257 95.5748 70.2157 100.185 79.8957 97.6948C90.3257 95.0248 97.2957 86.2648 97.3357 75.8048C97.3357 73.3948 97.3357 70.9848 97.3357 68.5648L97.3257 68.5948Z" fill="#FAE2B5"/>
<path d="M54.1957 40.2247C58.6957 40.2247 63.1857 40.3047 67.6857 40.1847C69.4057 40.1347 69.7657 40.7747 69.7957 42.3347C69.9157 48.6647 69.9557 48.6647 63.6157 48.6647C60.3657 48.6647 57.1157 48.7347 53.8757 48.6347C52.2257 48.5847 51.6657 49.1747 51.7457 50.7947C51.8557 53.0347 51.7157 55.2847 51.7957 57.5247C51.8457 58.9847 51.3857 59.6447 49.8157 59.5947C46.7357 59.5047 43.6557 59.4947 40.5757 59.5947C38.8957 59.6447 38.4557 58.9647 38.4857 57.3847C38.5657 52.3147 38.5657 47.2447 38.4857 42.1647C38.4557 40.6347 38.9457 40.1547 40.4657 40.1847C45.0457 40.2647 49.6257 40.2147 54.2057 40.2147L54.1957 40.2247Z" fill="#FAE2B5"/>
<path d="M89.7157 57.1248C89.7157 51.9048 89.7357 46.8448 89.6957 41.7848C89.6957 40.5848 90.1857 40.2048 91.3357 40.2148C97.1557 40.2448 102.986 40.2448 108.806 40.2148C109.866 40.2148 110.276 40.5948 110.276 41.6748C110.246 47.1448 110.256 52.6148 110.256 58.4048C108.886 57.6748 108.356 56.5048 107.636 55.5848C105.536 52.8948 103.416 50.2248 101.526 47.3848C100.186 45.3748 99.4257 45.7348 98.1957 47.4448C96.1557 50.2748 93.9157 52.9548 91.7157 55.6648C91.2757 56.2048 90.9957 56.9948 89.7057 57.1048L89.7157 57.1248Z" fill="#FAE2B5"/>
<path d="M51.7556 70.8848C51.7556 73.2148 51.7156 75.5448 51.7656 77.8648C51.7956 79.2348 51.2856 79.8048 49.8656 79.7748C46.7856 79.7048 43.7056 79.7248 40.6256 79.7748C39.3956 79.7948 38.8256 79.3648 38.7156 78.0848C38.2656 73.1848 38.6256 68.2848 38.5056 63.3848C38.4856 62.3048 39.1856 62.2148 39.9956 62.2148C43.4056 62.2148 46.8256 62.2548 50.2356 62.1948C51.5156 62.1748 51.7756 62.8248 51.7556 63.8948C51.7256 66.2248 51.7556 68.5548 51.7556 70.8748V70.8848Z" fill="#FAE2B5"/>
<path d="M86.9457 48.2047C86.9457 50.3647 86.9457 52.5247 86.9457 54.6847C86.9457 55.7447 86.9457 56.5747 85.4757 55.7847C81.8157 53.8047 77.8857 52.8747 73.7257 53.0547C72.6557 53.1047 72.4457 52.5647 72.4457 51.7047C72.4457 48.2947 72.4557 44.8847 72.4457 41.4847C72.4457 40.4947 72.9357 40.2147 73.8457 40.2147C77.7557 40.2347 81.6657 40.2547 85.5757 40.2147C86.7257 40.2047 86.9757 40.7347 86.9557 41.7247C86.9157 43.8847 86.9457 46.0447 86.9457 48.2047Z" fill="#FAE2B5"/>
<path d="M105.726 91.0147C105.726 85.0547 105.726 79.0947 105.726 73.1347C105.726 69.6547 105.816 66.1647 105.686 62.6947C105.616 60.8547 106.206 60.2247 108.076 60.2347C109.866 60.2347 110.356 60.8847 110.286 62.5747C109.996 69.5947 110.986 76.6747 109.206 83.6147C108.526 86.2547 107.706 88.8547 105.726 91.0247V91.0147Z" fill="#F0DDB4"/>
<path d="M74.6257 74.4648C72.6257 74.4648 70.6357 74.4348 68.6357 74.4648C67.3457 74.4948 66.7557 73.9948 67.0057 72.6748C67.0257 72.5948 67.0157 72.5048 67.0257 72.4248C67.2157 67.7748 67.2157 67.8348 71.8057 68.0448C74.3757 68.1648 76.9757 68.3148 79.5157 67.7748C81.1757 67.4248 81.7257 68.0848 81.8657 69.6348C82.3657 75.3148 82.9757 74.3848 77.6257 74.4648C76.6257 74.4748 75.6257 74.4648 74.6257 74.4648Z" fill="#F0DDB4"/>
<path d="M54.4857 63.7648C54.4857 59.9948 54.4857 56.2248 54.4857 52.4548C54.4857 51.5548 55.1357 51.3848 55.8457 51.3848C60.0057 51.3748 64.1657 51.3748 68.3257 51.3848C68.9157 51.3848 69.5457 51.4148 69.6857 52.1648C69.8157 52.8948 69.6157 53.5148 68.8357 53.7348C62.9357 55.3848 58.3457 58.8348 54.4857 63.7748V63.7648Z" fill="#FAE2B5"/>
<path d="M75.3657 83.4548C73.8657 83.4548 72.3757 83.4948 70.8757 83.4448C69.7757 83.4048 68.1357 84.3148 67.6757 83.1148C67.0457 81.4748 67.1357 79.5348 67.0357 77.7248C66.9957 77.0948 67.6757 77.0548 68.1757 77.0548C72.4157 77.0448 76.6557 77.0548 80.9057 77.0348C81.8457 77.0348 82.1857 77.4048 82.2357 78.3648C82.4557 82.7648 81.7357 83.5448 77.3657 83.4248C76.6957 83.4048 76.0357 83.4248 75.3657 83.4248C75.3657 83.4348 75.3657 83.4548 75.3657 83.4648V83.4548Z" fill="#F0DDB4"/>
<path d="M80.6857 87.3948C79.7457 90.1848 78.8457 93.1648 76.1757 95.0748C74.6957 96.1348 73.3357 95.6248 72.1557 94.4548C70.2657 92.5848 69.3357 90.1848 68.5257 87.7348C68.1757 86.6848 68.6457 86.2048 69.7357 86.1348C72.9757 85.9248 76.2157 85.9248 79.4457 86.1348C80.1557 86.1848 80.8057 86.2948 80.6757 87.3848L80.6857 87.3948Z" fill="#F0DDB4"/>
<path d="M74.6257 65.5448C73.8057 65.4548 72.9857 65.3448 72.1557 65.2948C67.7257 65.0248 67.6557 64.9648 69.6057 60.8248C70.6557 58.5948 71.7057 55.8848 74.5457 55.8148C77.3457 55.7448 78.3057 58.4648 79.3757 60.5848C81.5457 64.9148 81.4757 64.9848 76.8457 65.2948C76.1057 65.3448 75.3657 65.4648 74.6257 65.5448Z" fill="#F0DDB4"/>
<path d="M59.4257 74.4748C53.6457 74.4748 53.6157 74.4348 55.6757 68.8648C55.9357 68.1648 56.2957 67.5048 56.5557 66.8148C57.1357 65.2548 58.0758 64.7148 59.5958 65.6648C59.7958 65.7948 60.0657 65.8148 60.3057 65.8948C64.6757 67.4248 64.5558 67.4248 64.4058 72.1648C64.3458 74.0748 63.7057 74.6948 61.9157 74.4848C61.0957 74.3948 60.2557 74.4648 59.4257 74.4648V74.4748Z" fill="#F0DDB4"/>
<path d="M89.6957 74.4747C84.9657 74.4747 83.3657 72.8947 84.5057 68.1547C85.0757 65.7847 88.4257 66.4747 90.3357 65.3447C91.3657 64.7347 92.0057 65.5047 92.4057 66.4447C92.7557 67.2847 93.1757 68.0947 93.4957 68.9447C95.5357 74.3547 95.4457 74.4747 89.6957 74.4747Z" fill="#F0DDB4"/>
<path d="M84.4057 82.7648C84.5924 78.9314 86.5357 77.0148 90.2357 77.0148C95.3657 77.0148 95.4157 77.0948 93.6157 82.0648C93.4457 82.5348 93.1957 82.9748 93.0657 83.4448C92.4157 85.8248 91.2157 86.8148 88.7557 85.4648C87.8257 84.9548 86.7257 84.7448 85.6857 84.4648C84.6457 84.1848 83.9657 83.7548 84.4057 82.7548V82.7648Z" fill="#F0DDB4"/>
<path d="M64.7957 82.7548C64.7957 82.8348 64.8357 82.9348 64.8057 83.0048C63.7957 85.7648 60.7857 84.5848 59.0157 85.9148C58.1357 86.5748 57.3557 86.0948 56.8257 85.0848C55.7757 83.0748 55.1157 80.9448 54.6257 78.7448C54.3257 77.4148 54.8657 76.9148 56.1857 77.0048C57.0957 77.0748 58.0157 77.0148 58.9357 77.0148C62.7691 77.0148 64.7224 78.9248 64.7957 82.7448V82.7548Z" fill="#F0DDB4"/>
<path d="M80.4357 56.6348C84.0157 57.7748 86.4157 59.3448 88.5657 61.3148C88.8657 61.5848 89.3557 62.0648 89.2757 62.2648C88.7157 63.7448 87.1857 63.6848 86.0057 63.9648C85.2057 64.1548 83.9157 65.4348 83.3757 63.5748C82.7357 61.3648 81.8457 59.2548 80.4357 56.6348Z" fill="#F0DDB4"/>
<path d="M68.4657 56.7247C67.4557 59.2847 66.3457 61.3847 65.7357 63.6847C65.4057 64.9047 64.4457 64.4047 63.6857 64.1647C62.3657 63.7547 60.3357 63.8047 60.0257 62.5147C59.6957 61.1647 61.6157 60.4247 62.6757 59.6047C64.2857 58.3547 66.0957 57.4147 68.4557 56.7247H68.4657Z" fill="#F0DDB4"/>
<path d="M80.8057 94.5047C81.7557 92.0247 82.6157 89.9847 83.3157 87.8947C83.5857 87.0947 83.8757 86.8147 84.7057 87.0247C86.2957 87.4147 88.6357 87.4547 89.0857 88.7947C89.5757 90.2347 87.3557 91.0647 86.1557 91.9547C84.6657 93.0747 83.0357 94.0247 80.8057 94.5047Z" fill="#F0DDB4"/>
<path d="M68.4757 94.7148C65.0657 93.5448 62.5856 91.9948 60.4456 89.8448C59.5756 88.9748 59.7356 88.4748 60.8256 88.0948C61.6056 87.8248 62.3957 87.5648 63.1857 87.2948C64.8157 86.7248 65.7357 87.0548 66.1857 88.9648C66.6157 90.7748 67.5556 92.4648 68.4856 94.7148H68.4757Z" fill="#F0DDB4"/>
<path d="M57.3557 104.465C57.3857 105.645 56.8257 106.275 55.3357 105.175C53.7457 104.005 52.1857 102.785 50.5957 101.615C49.0957 100.515 49.5657 99.8447 51.0557 99.3547C52.7657 98.7947 57.3957 102.215 57.3557 104.455V104.465Z" fill="#FAE2B5"/>
<path d="M91.9957 105.925C91.7057 104.335 91.1657 102.775 92.9057 101.895C94.6257 101.025 95.5457 98.4448 98.1857 99.4848C99.4257 99.9748 99.6357 100.525 98.6057 101.385C96.5857 103.075 94.6457 104.885 91.9957 105.935V105.925Z" fill="#FAE2B5"/>
<path d="M74.4957 110.745C73.5757 110.685 72.7457 110.695 71.9257 110.575C71.2457 110.475 70.2458 110.915 69.9758 109.985C69.7558 109.255 70.4357 108.575 70.8957 108.035C72.0057 106.715 77.5857 107.255 78.5457 108.665C79.3957 109.905 79.3758 110.585 77.6258 110.575C76.5558 110.575 75.4757 110.685 74.4857 110.745H74.4957Z" fill="#FAE2B5"/>
<path d="M41.6157 88.9948C40.5857 87.3648 40.2357 85.6548 39.7257 84.0248C39.5657 83.5248 39.2357 82.8348 40.0957 82.6148C40.7157 82.4548 41.4057 82.3448 41.9757 82.8348C43.4457 84.1148 43.3357 87.3948 41.6257 89.0048L41.6157 88.9948Z" fill="#FAE2B5"/>
<path d="M94.6957 63.8948C93.4257 63.4948 93.2157 62.5048 92.6557 61.8448C92.3157 61.4348 91.6557 60.9548 92.1257 60.3848C92.3557 60.1148 93.0457 60.1848 93.5357 60.1848C94.1857 60.1848 94.6657 60.4648 94.6857 61.1848C94.7157 62.0448 94.6857 62.9148 94.6857 63.8948H94.6957Z" fill="#F0DDB4"/>
</svg>
