<svg width="250" height="42" viewBox="0 0 250 42" fill="none" xmlns="http://www.w3.org/2000/svg">
<path d="M0.901855 13.6191H249.428" stroke="#07E98A"/>
<circle cx="23.8013" cy="12.2173" r="11.2852" fill="#07E98A" stroke="#5F6269" stroke-width="0.75297"/>
<path d="M23.34 38.2845C22.6341 38.2845 22.0324 38.1562 21.535 37.8995C21.0457 37.6428 20.6246 37.2978 20.2716 36.8647L21.2102 35.9863C21.507 36.3472 21.8319 36.62 22.1848 36.8045C22.5458 36.989 22.9549 37.0812 23.4122 37.0812C23.9496 37.0812 24.3548 36.9609 24.6275 36.7203C24.9002 36.4796 25.0366 36.1547 25.0366 35.7456C25.0366 35.4167 24.9404 35.156 24.7478 34.9635C24.5553 34.7709 24.2144 34.6265 23.725 34.5303L22.979 34.3979C22.1608 34.2455 21.5471 33.9768 21.138 33.5917C20.7288 33.2067 20.5243 32.6772 20.5243 32.0034C20.5243 31.6344 20.5925 31.3015 20.7288 31.0046C20.8732 30.6998 21.0698 30.4471 21.3185 30.2466C21.5752 30.038 21.884 29.8776 22.245 29.7653C22.606 29.653 23.0111 29.5968 23.4603 29.5968C24.094 29.5968 24.6435 29.7091 25.1088 29.9337C25.5741 30.1503 25.9712 30.4672 26.3001 30.8843L25.3495 31.7266C25.1329 31.4458 24.8682 31.2212 24.5553 31.0528C24.2424 30.8843 23.8534 30.8001 23.3881 30.8001C22.9068 30.8001 22.5338 30.8963 22.2691 31.0889C22.0043 31.2814 21.872 31.5622 21.872 31.9312C21.872 32.2841 21.9803 32.5489 22.1969 32.7253C22.4134 32.8938 22.7504 33.0222 23.2076 33.1104L23.9537 33.2668C24.796 33.4273 25.4096 33.7 25.7947 34.0851C26.1878 34.4701 26.3843 34.9996 26.3843 35.6734C26.3843 36.0665 26.3161 36.4234 26.1797 36.7443C26.0434 37.0652 25.8428 37.342 25.5781 37.5746C25.3214 37.7992 25.0045 37.9757 24.6275 38.104C24.2505 38.2244 23.8213 38.2845 23.34 38.2845Z" fill="white"/>
<circle cx="58.1546" cy="12.2173" r="11.2852" fill="#07E98A" stroke="#5F6269" stroke-width="0.75297"/>
<path d="M57.4638 16.3178C57.1927 16.3178 56.9641 16.2067 56.778 15.9847L54.3872 13.0648C54.3088 12.9733 54.2533 12.8868 54.2206 12.8051C54.188 12.7202 54.1716 12.6304 54.1716 12.5357C54.1716 12.3332 54.2402 12.165 54.3774 12.0311C54.5146 11.8972 54.6877 11.8302 54.8967 11.8302C55.1319 11.8302 55.3278 11.9266 55.4846 12.1193L57.4442 14.5688L61.2851 8.49393C61.3733 8.35676 61.4664 8.26041 61.5644 8.20488C61.6624 8.14609 61.7832 8.1167 61.9269 8.1167C62.1359 8.1167 62.3074 8.18365 62.4413 8.31756C62.5752 8.4482 62.6422 8.61477 62.6422 8.81727C62.6422 8.89239 62.6291 8.97241 62.603 9.05733C62.5769 9.13898 62.536 9.2239 62.4805 9.31208L58.1546 15.9602C57.9946 16.1986 57.7643 16.3178 57.4638 16.3178Z" fill="#1E2329"/>
<path d="M54.6769 29.7412H57.649C58.1865 29.7412 58.6718 29.8294 59.105 30.0059C59.5462 30.1824 59.9192 30.4471 60.2241 30.8001C60.5369 31.145 60.7776 31.5822 60.946 32.1117C61.1145 32.6331 61.1987 33.2428 61.1987 33.9407C61.1987 34.6386 61.1145 35.2522 60.946 35.7817C60.7776 36.3031 60.5369 36.7403 60.2241 37.0933C59.9192 37.4382 59.5462 37.6989 59.105 37.8754C58.6718 38.0519 58.1865 38.1401 57.649 38.1401H54.6769V29.7412ZM57.649 36.9368C58.2747 36.9368 58.7801 36.7403 59.1652 36.3472C59.5502 35.9542 59.7428 35.3766 59.7428 34.6145V33.2668C59.7428 32.5047 59.5502 31.9272 59.1652 31.5341C58.7801 31.141 58.2747 30.9445 57.649 30.9445H56.0366V36.9368H57.649Z" fill="white"/>
<circle cx="93.5078" cy="12.2173" r="11.2852" fill="#07E98A" stroke="#5F6269" stroke-width="0.75297"/>
<path d="M92.4638 16.3178C92.1927 16.3178 91.9641 16.2067 91.778 15.9847L89.3872 13.0648C89.3088 12.9733 89.2533 12.8868 89.2206 12.8051C89.188 12.7202 89.1716 12.6304 89.1716 12.5357C89.1716 12.3332 89.2402 12.165 89.3774 12.0311C89.5146 11.8972 89.6877 11.8302 89.8967 11.8302C90.1319 11.8302 90.3278 11.9266 90.4846 12.1193L92.4442 14.5688L96.2851 8.49393C96.3733 8.35676 96.4664 8.26041 96.5644 8.20488C96.6624 8.14609 96.7832 8.1167 96.9269 8.1167C97.1359 8.1167 97.3074 8.18365 97.4413 8.31756C97.5752 8.4482 97.6422 8.61477 97.6422 8.81727C97.6422 8.89239 97.6291 8.97241 97.603 9.05733C97.5769 9.13898 97.536 9.2239 97.4805 9.31208L93.1546 15.9602C92.9946 16.1986 92.7643 16.3178 92.4638 16.3178Z" fill="#1E2329"/>
<path d="M91.0426 38.1401V29.7412H92.4024V36.9368H95.8197V38.1401H91.0426Z" fill="white"/>
<circle cx="127.861" cy="12.2173" r="11.2852" fill="#07E98A" stroke="#5F6269" stroke-width="0.75297"/>
<path d="M127.464 16.3178C127.193 16.3178 126.964 16.2067 126.778 15.9847L124.387 13.0648C124.309 12.9733 124.253 12.8868 124.221 12.8051C124.188 12.7202 124.172 12.6304 124.172 12.5357C124.172 12.3332 124.24 12.165 124.377 12.0311C124.515 11.8972 124.688 11.8302 124.897 11.8302C125.132 11.8302 125.328 11.9266 125.485 12.1193L127.444 14.5688L131.285 8.49393C131.373 8.35676 131.466 8.26041 131.564 8.20488C131.662 8.14609 131.783 8.1167 131.927 8.1167C132.136 8.1167 132.307 8.18365 132.441 8.31756C132.575 8.4482 132.642 8.61477 132.642 8.81727C132.642 8.89239 132.629 8.97241 132.603 9.05733C132.577 9.13898 132.536 9.2239 132.481 9.31208L128.155 15.9602C127.995 16.1986 127.764 16.3178 127.464 16.3178Z" fill="#1E2329"/>
<path d="M130.322 31.7146H130.262L129.6 33.0743L127.759 36.4315L125.918 33.0743L125.256 31.7146H125.196V38.1401H123.896V29.7412H125.509L127.759 34.0129H127.831L130.081 29.7412H131.621V38.1401H130.322V31.7146Z" fill="white"/>
<circle cx="162.215" cy="12.2173" r="11.2852" fill="#07E98A" stroke="#5F6269" stroke-width="0.75297"/>
<path d="M161.464 16.3178C161.193 16.3178 160.964 16.2067 160.778 15.9847L158.387 13.0648C158.309 12.9733 158.253 12.8868 158.221 12.8051C158.188 12.7202 158.172 12.6304 158.172 12.5357C158.172 12.3332 158.24 12.165 158.377 12.0311C158.515 11.8972 158.688 11.8302 158.897 11.8302C159.132 11.8302 159.328 11.9266 159.485 12.1193L161.444 14.5688L165.285 8.49393C165.373 8.35676 165.466 8.26041 165.564 8.20488C165.662 8.14609 165.783 8.1167 165.927 8.1167C166.136 8.1167 166.307 8.18365 166.441 8.31756C166.575 8.4482 166.642 8.61477 166.642 8.81727C166.642 8.89239 166.629 8.97241 166.603 9.05733C166.577 9.13898 166.536 9.2239 166.481 9.31208L162.155 15.9602C161.995 16.1986 161.764 16.3178 161.464 16.3178Z" fill="#1E2329"/>
<path d="M164.675 31.7146H164.615L163.953 33.0743L162.112 36.4315L160.271 33.0743L159.609 31.7146H159.549V38.1401H158.249V29.7412H159.862L162.112 34.0129H162.184L164.434 29.7412H165.975V38.1401H164.675V31.7146Z" fill="white"/>
<circle cx="195.568" cy="12.2173" r="11.2852" fill="#2D313A" stroke="#5F6269" stroke-width="0.75297"/>
<path d="M197.471 29.7412V35.8539C197.471 36.2229 197.411 36.5558 197.29 36.8526C197.17 37.1494 196.998 37.4061 196.773 37.6227C196.556 37.8313 196.288 37.9957 195.967 38.1161C195.654 38.2284 195.305 38.2845 194.92 38.2845C194.19 38.2845 193.612 38.092 193.187 37.707C192.77 37.3139 192.505 36.8045 192.393 36.1788L193.644 35.902C193.717 36.263 193.853 36.5478 194.054 36.7564C194.262 36.9649 194.551 37.0692 194.92 37.0692C195.281 37.0692 195.57 36.9569 195.786 36.7323C196.003 36.5077 196.111 36.1667 196.111 35.7095V30.8723H193.368V29.7412H197.471Z" fill="white"/>
<circle cx="229.921" cy="12.2173" r="11.2852" fill="#2D313A" stroke="#5F6269" stroke-width="0.75297"/>
<path d="M228.894 38.1401L226.138 29.7412H227.546L228.881 33.8925L229.688 36.8165H229.736L230.554 33.8925L231.89 29.7412H233.261L230.47 38.1401H228.894Z" fill="white"/>
<path d="M22.612 16.3178C22.3409 16.3178 22.1123 16.2067 21.9261 15.9847L19.5354 13.0648C19.457 12.9733 19.4015 12.8868 19.3688 12.8051C19.3362 12.7202 19.3198 12.6304 19.3198 12.5357C19.3198 12.3332 19.3884 12.165 19.5256 12.0311C19.6628 11.8972 19.8359 11.8302 20.0449 11.8302C20.28 11.8302 20.476 11.9266 20.6328 12.1193L22.5924 14.5688L26.4333 8.49393C26.5215 8.35676 26.6146 8.26041 26.7126 8.20488C26.8105 8.14609 26.9314 8.1167 27.0751 8.1167C27.2841 8.1167 27.4556 8.18365 27.5895 8.31756C27.7234 8.4482 27.7904 8.61477 27.7904 8.81727C27.7904 8.89239 27.7773 8.97241 27.7512 9.05733C27.725 9.13898 27.6842 9.2239 27.6287 9.31208L23.3028 15.9602C23.1428 16.1986 22.9125 16.3178 22.612 16.3178Z" fill="#1E2329"/>
</svg>
