<svg width="443" height="116" viewBox="0 0 443 116" fill="none" xmlns="http://www.w3.org/2000/svg">
<path d="M84.4291 97.1867C79.3306 102.203 75.0406 106.641 70.5196 110.816C63.2761 117.531 52.2871 117.564 45.2251 110.651C31.7116 97.4177 18.3136 84.0692 5.08061 70.5557C-1.91539 63.4112 -1.58539 52.2077 5.49311 45.0962C18.3631 32.1767 31.2661 19.3067 44.2021 6.45322C52.6336 -1.92878 63.2431 -1.89578 71.7901 6.53572C80.0896 14.7197 88.3231 22.9532 96.5401 31.2197C104.708 39.4367 104.774 50.1617 96.5896 58.5107C89.1151 66.1502 81.5746 73.7237 73.8526 81.1322C71.3776 83.5082 71.2456 85.0592 73.8526 87.3032C77.3836 90.3227 80.6671 93.6392 84.4126 97.1702L84.4291 97.1867ZM71.7736 83.2277C67.3351 79.2512 62.7976 75.1922 57.7816 70.7042C66.8566 61.6952 75.3871 53.2307 83.6206 45.0467C75.0406 36.4337 66.4606 27.8207 58.2601 19.5872C45.3571 32.4572 32.3221 45.4757 19.7656 58.0157C32.4541 70.6712 45.5056 83.6732 58.4251 96.5432C62.2861 92.6987 66.5431 88.4582 71.7901 83.2112L71.7736 83.2277Z" fill="white"/>
<path d="M137.396 71.461C137.396 77.236 137.396 82.5325 137.396 87.8125C137.396 93.0926 137.396 98.4551 137.396 104.082H121.523C121.44 102.597 121.325 101.26 121.325 99.9401C121.325 72.1541 121.391 44.3845 121.242 16.5985C121.226 12.8695 122.183 11.632 126.044 11.7475C140.283 12.1765 154.539 11.929 168.762 12.589C182.177 13.216 192.308 23.7925 192.539 37.174C192.638 43.0975 192.473 49.4006 190.592 54.8951C186.83 65.9006 177.887 70.8835 166.551 71.3455C158.466 71.6755 150.381 71.4281 142.28 71.4445C140.811 71.4445 139.343 71.4445 137.412 71.4445L137.396 71.461ZM137.594 57.6505C147.048 57.6505 156.09 58.03 165.066 57.535C171.732 57.172 175.577 53.41 176.204 47.5855C176.633 43.675 176.666 39.6325 176.22 35.722C175.61 30.2605 171.221 26.5645 165.545 26.2675C162.261 26.1025 158.961 26.2015 155.678 26.2015C149.705 26.2015 143.732 26.2015 137.577 26.2015V57.667L137.594 57.6505Z" fill="white"/>
<path d="M283.371 61.99C283.371 54.301 284.064 47.1895 276.606 43.213C268.455 38.857 260.849 41.101 249.876 50.902C248.259 49.5325 246.576 48.163 244.959 46.744C240.57 42.8995 240.504 42.817 244.596 38.494C253.506 29.0725 264.776 27.868 276.788 29.6995C287.117 31.2835 294.674 36.4315 297.479 46.9255C298.271 49.912 298.271 53.146 298.304 56.2645C298.403 66.2635 298.32 76.2625 298.337 86.2615C298.337 90.1335 300.229 92.141 304.013 92.284C304.557 92.3005 305.102 92.3995 305.943 92.4985C305.943 96.2605 305.943 100.023 305.943 103.785C294.855 106.623 290.004 104.164 284.031 92.482C283.371 93.505 282.761 94.297 282.315 95.188C278.124 103.422 270.914 106.045 262.268 106.078C253.127 106.095 245.124 103.818 240.521 95.0065C233.574 81.724 241.082 66.28 256.047 63.739C262.895 62.584 269.924 62.518 276.87 62.023C278.883 61.8745 280.896 62.0065 283.388 62.0065L283.371 61.99ZM274.263 71.5765C270.584 71.824 266.871 71.8405 263.241 72.385C256.526 73.3915 253.424 77.2195 253.539 83.836C253.655 90.0565 257.021 93.703 263.621 94.5775C265.37 94.8085 267.185 94.825 268.95 94.6765C278.009 93.868 283.239 88.9345 283.437 81.1135C283.591 74.8765 280.533 71.6975 274.263 71.5765Z" fill="white"/>
<path d="M359.502 42.9655V30.9535H415.536C416.279 37.1575 416.246 42.652 411.609 47.998C399.96 61.4125 388.922 75.3715 377.669 89.1325C377.108 89.8255 376.778 90.7 375.969 92.185H416.444V104.065H358.067C357.341 97.8445 357.291 92.284 362.093 86.7895C373.676 73.507 384.5 59.5645 395.604 45.8695C396.165 45.1765 396.545 44.3515 397.37 42.982H359.502V42.9655Z" fill="white"/>
<path d="M349.371 30.6235C349.371 34.3195 349.586 37.471 349.239 40.54C349.14 41.464 347.474 42.784 346.418 42.8995C343.299 43.2295 340.115 43.0975 336.963 43.015C334.719 42.9655 333.746 43.873 333.746 46.15C333.795 60.5215 333.779 74.8765 333.762 89.248C333.762 91.5415 334.835 92.3665 337.062 92.3005C340.61 92.2015 344.157 92.2675 348.018 92.2675V104.015C342.012 104.015 335.957 104.659 330.116 103.85C322.839 102.844 318.945 97.465 318.896 89.9575C318.813 76.147 318.879 62.32 318.879 48.493C318.879 46.876 318.879 45.2755 318.879 43.048H306.933V30.706C320.348 31.2505 321.255 22.2415 320.117 11.863C324.423 11.863 327.971 11.665 331.469 11.995C332.31 12.0775 333.581 13.8595 333.647 14.9155C333.911 18.859 333.861 22.852 333.746 26.812C333.663 29.584 334.637 30.7885 337.557 30.64C341.237 30.442 344.916 30.5905 349.388 30.5905L349.371 30.6235Z" fill="white"/>
<path d="M203.346 12.6055H218.048V92.0035C221.463 92.1685 224.532 92.317 227.948 92.482V104.279C221.859 104.279 215.853 104.593 209.913 104.164C205.937 103.883 202.868 99.973 202.851 95.7654C202.802 68.4085 202.851 41.0515 202.901 13.711C202.901 13.4635 203.082 13.216 203.33 12.6055H203.346Z" fill="white"/>
<path d="M440.319 104.395C436.029 104.395 431.954 104.444 427.878 104.395C424.941 104.362 425.733 102.019 425.733 100.435C425.667 86.3274 425.7 72.2364 425.7 58.1289C425.7 50.6049 425.7 43.0644 425.7 35.5404C425.7 34.0719 425.849 32.6034 425.948 30.9369H440.319V104.411V104.395Z" fill="white"/>
<path d="M424.281 12.094C424.281 6.84698 428.175 2.75498 433.092 2.82098C437.91 2.88698 442.217 7.27598 442.134 12.061C442.052 16.912 438.059 21.0535 433.406 21.0865C428.324 21.136 424.265 17.143 424.281 12.1105V12.094Z" fill="white"/>
</svg>
