<svg width="16" height="15" viewBox="0 0 16 15" fill="none" xmlns="http://www.w3.org/2000/svg">
<path d="M7.78174 0.295268C10.0528 0.295268 12.3257 0.304747 14.5967 0.287686C15.008 0.283894 15.1445 0.401426 15.1407 0.822265C15.1237 3.04399 15.1881 5.26761 15.1199 7.48744C15.0099 11.0229 12.7768 13.9858 9.08218 14.7156C5.55813 15.4113 2.00375 13.292 0.853077 9.89684C0.5365 8.96227 0.390535 8.00875 0.392431 7.02679C0.398118 4.97947 0.405705 2.93025 0.384852 0.882926C0.381061 0.435548 0.500489 0.283894 0.966824 0.289581C3.23784 0.312329 5.51073 0.299059 7.78174 0.299059V0.295268ZM8.12486 9.46842C9.06511 8.52437 9.92196 7.66753 10.7731 6.80689C10.9324 6.64576 11.0878 6.49032 11.3399 6.5396C12.3996 6.74244 13.1901 6.3235 13.81 5.48751C13.9313 5.32448 14.0867 5.1842 14.2441 5.0534C14.445 4.88658 14.5 4.68374 14.4962 4.42972C14.4848 3.42123 14.4754 2.41273 14.5 1.40424C14.5095 1.03268 14.4033 0.917048 14.0223 0.92084C12.2081 0.939796 10.3921 0.939796 8.57793 0.92084C8.18742 0.917048 8.06041 1.027 8.06609 1.42509C8.08505 3.18996 8.07369 4.95483 8.07558 6.72159C8.07558 6.85808 8.03198 7.00783 8.14193 7.1102C8.92294 6.30454 9.70016 5.50078 10.4508 4.72734C10.4376 4.72734 10.3428 4.71028 10.2518 4.71597C10.0167 4.73114 9.85561 4.68943 9.8594 4.39371C9.86319 4.11504 10.0262 4.09798 10.2329 4.09988C10.5949 4.10367 10.9589 4.09988 11.321 4.10177C11.4859 4.10177 11.6489 4.10936 11.6489 4.33873C11.6489 4.78042 11.6489 5.22211 11.6489 5.66191C11.6489 5.90266 11.4745 5.87422 11.3172 5.8837C11.1409 5.89318 11.0613 5.82494 11.0594 5.63916C11.0594 5.53111 11.1314 5.38325 10.9058 5.28088C10.1589 6.03915 9.44045 6.86187 8.62342 7.57085C8.02629 8.09026 8.02061 8.67223 8.12297 9.47031L8.12486 9.46842ZM1.03507 4.76715C1.03507 4.76715 1.05213 4.76715 1.06161 4.76715C1.06161 5.94816 1.018 7.13105 1.07487 8.30826C1.12795 9.42671 1.29856 9.53287 2.30895 9.47221C2.55349 9.45704 2.64259 9.37742 2.63501 9.13478C2.62174 8.72531 2.64069 8.31585 2.62932 7.90638C2.62174 7.66184 2.71273 7.56895 2.95916 7.57843C3.35346 7.5917 3.74777 7.57843 4.14207 7.58222C4.92498 7.58791 4.88517 7.48554 4.84725 8.28173C4.8245 8.76323 4.96668 8.89782 5.45007 8.89403C5.9221 8.89024 6.12683 8.7746 6.04721 8.28552C6.01878 8.1168 6.04342 7.9405 6.04342 7.7661C6.04342 6.79552 6.04342 6.78035 7.02537 6.78604C7.37039 6.78604 7.49171 6.69695 7.48792 6.33487C7.47086 4.68185 7.47086 3.02882 7.48792 1.3758C7.49171 1.02131 7.37797 0.918944 7.02727 0.92084C5.18279 0.936005 3.3383 0.939796 1.49381 0.918944C1.09383 0.915152 1.02558 1.06491 1.03127 1.41371C1.04833 2.53216 1.03696 3.64871 1.03696 4.76715H1.03507ZM14.4848 7.80022C14.4356 7.76989 14.3844 7.74146 14.3351 7.71113C14.172 7.9007 13.9939 8.08078 13.8479 8.28362C13.3323 9.00208 12.6479 9.29401 11.7721 9.14236C11.4347 9.08359 11.1807 9.2144 10.9418 9.46842C10.3352 10.1073 9.74755 10.7783 9.06322 11.3281C8.23102 11.9991 7.90118 12.7972 8.07368 13.8304C8.07558 13.8455 8.07558 13.8626 8.07368 13.8777C8.03577 14.1905 8.1571 14.2967 8.47936 14.2493C10.9892 13.8777 12.8261 12.583 13.9142 10.2836C14.282 9.50443 14.5 8.67413 14.4867 7.80402L14.4848 7.80022ZM8.11918 11.3243C8.32391 11.2864 8.40163 11.1366 8.50969 11.0304C9.27174 10.276 10.03 9.5196 10.7845 8.75754C10.9475 8.59262 11.1143 8.45234 11.3589 8.50162C12.4299 8.71773 13.1996 8.25139 13.8232 7.43626C13.9085 7.32441 14.009 7.21636 14.1228 7.13484C14.6232 6.77656 14.4962 6.2799 14.4829 5.76807C14.1986 5.87233 14.0394 6.0619 13.9142 6.24578C13.3948 7.00215 12.6953 7.27702 11.8044 7.12537C11.4783 7.07039 11.247 7.21257 11.0177 7.44574C10.1798 8.30258 9.34947 9.1689 8.4604 9.96887C7.99596 10.3859 8.05093 10.8219 8.11918 11.3262V11.3243ZM7.47844 10.8238C7.47844 9.78689 7.46897 8.74806 7.48413 7.71113C7.48793 7.39076 7.323 7.34716 7.06898 7.36612C6.86235 7.38128 6.6216 7.29598 6.62349 7.66563C6.63297 9.74139 6.62918 11.8172 6.62729 13.891C6.62729 14.3327 6.97988 14.1981 7.20546 14.2474C7.51256 14.3137 7.47844 14.0787 7.47844 13.891C7.47844 12.8692 7.47844 11.8475 7.47844 10.8257V10.8238ZM6.04152 11.7584C6.04152 11.239 6.04721 10.7196 6.04152 10.2001C6.03204 9.40207 6.1818 9.49495 5.31927 9.45894C4.92118 9.44188 4.84536 9.60111 4.85295 9.95371C4.8719 10.9129 4.85863 11.8721 4.85863 12.8332C4.85863 13.7052 4.88707 13.7261 5.71737 13.946C5.98655 14.018 6.051 13.9498 6.04532 13.6939C6.03584 13.0493 6.04152 12.4029 6.04152 11.7584ZM4.24443 13.2427C4.24443 11.62 4.23116 10.0921 4.25201 8.56229C4.2577 8.11112 3.97524 8.20211 3.71933 8.19452C3.44825 8.18694 3.19802 8.14713 3.20939 8.58124C3.23783 9.6523 3.27953 10.729 3.19992 11.7963C3.13925 12.6039 3.62834 12.8844 4.24633 13.2408L4.24443 13.2427ZM2.62932 11.8285C2.62932 11.2428 2.62742 10.7897 2.62932 10.3347C2.62932 10.1755 2.59709 10.0447 2.40373 10.058C2.13076 10.0788 1.84451 9.97456 1.5867 10.13C1.57153 10.1395 1.58481 10.2191 1.60187 10.257C1.85399 10.7897 2.12128 11.3148 2.62742 11.8266L2.62932 11.8285Z" fill="#846936"/>
<path d="M8.12531 9.46851C8.02294 8.67043 8.02674 8.08846 8.62577 7.56905C9.4428 6.85817 10.1613 6.03735 10.9082 5.27908C11.1337 5.38145 11.0598 5.52931 11.0617 5.63736C11.0636 5.82314 11.1413 5.89138 11.3195 5.8819C11.4769 5.87432 11.6513 5.90086 11.6513 5.66011C11.6513 5.21842 11.6513 4.77673 11.6513 4.33693C11.6513 4.10756 11.4882 4.10187 11.3233 4.09997C10.9612 4.09997 10.5973 4.10187 10.2352 4.09808C10.0267 4.09618 9.86554 4.11324 9.86175 4.39191C9.85796 4.68763 10.0191 4.72934 10.2542 4.71417C10.347 4.70848 10.4399 4.72365 10.4532 4.72554C9.70251 5.50087 8.92339 6.30464 8.14427 7.1084C8.03622 7.00603 8.07792 6.85628 8.07792 6.71979C8.07413 4.95492 8.0874 3.19005 8.06844 1.42329C8.06465 1.0252 8.19166 0.915248 8.58027 0.919039C10.3944 0.937996 12.2105 0.937996 14.0246 0.919039C14.4038 0.915248 14.5099 1.03088 14.5023 1.40243C14.4796 2.41093 14.4872 3.41943 14.4986 4.42792C14.5024 4.68194 14.4474 4.88478 14.2464 5.0516C14.0891 5.1824 13.9336 5.32268 13.8123 5.48571C13.1924 6.3217 12.4038 6.74064 11.3423 6.53781C11.0901 6.49041 10.9347 6.64396 10.7755 6.80509C9.92431 7.66573 9.06746 8.52257 8.12721 9.46661L8.12531 9.46851ZM13.8483 3.06683C13.8635 3.11991 13.8635 3.07631 13.8465 3.06683C13.5811 2.91708 13.3763 2.71234 13.2266 2.44695C13.1886 2.3806 13.1052 2.38439 13.0711 2.44316C12.9138 2.70097 12.7109 2.9076 12.4531 3.06683C12.3925 3.10285 12.4228 3.19005 12.4797 3.22228C12.728 3.36825 12.9138 3.57298 13.0673 3.81183C13.0806 3.83268 13.1375 3.85354 13.1451 3.84595C13.3725 3.59952 13.5962 3.34929 13.8502 3.06873L13.8483 3.06683Z" fill="#F0DDB4"/>
<path d="M1.0353 4.76731C1.0353 3.64886 1.04667 2.53042 1.02961 1.41387C1.02392 1.06507 1.09217 0.913412 1.49216 0.919099C3.33664 0.939952 5.18113 0.936161 7.02561 0.920995C7.37631 0.9191 7.49005 1.01957 7.48626 1.37596C7.4711 3.02898 7.4692 4.68201 7.48626 6.33503C7.49005 6.6971 7.36683 6.78809 7.02372 6.7862C6.04176 6.78051 6.04176 6.79568 6.04176 7.76626C6.04176 7.93877 6.01902 8.11696 6.04556 8.28568C6.12517 8.77476 5.92044 8.89039 5.44842 8.89419C4.96502 8.89798 4.82285 8.76338 4.84559 8.28188C4.88351 7.4857 4.92332 7.58996 4.14041 7.58238C3.74611 7.57859 3.35181 7.59186 2.95752 7.57859C2.71108 7.56911 2.62008 7.662 2.62766 7.90654C2.63903 8.31601 2.62008 8.72547 2.63335 9.13494C2.64093 9.37758 2.54994 9.4572 2.30729 9.47236C1.295 9.53492 1.1244 9.42687 1.07322 8.30842C1.01825 7.13121 1.05995 5.94831 1.05995 4.76731C1.05047 4.76731 1.04288 4.76731 1.03341 4.76731H1.0353ZM4.29016 6.44498C5.69106 6.45825 6.82847 5.33791 6.82657 3.94269C6.82657 2.57212 5.70623 1.4442 4.33566 1.42904C2.97078 1.41387 1.83148 2.52284 1.79925 3.8972C1.76703 5.28862 2.88547 6.43171 4.29016 6.44498Z" fill="#F0DDB4"/>
<path d="M14.4851 7.80041C14.5003 8.67052 14.2804 9.50082 13.9126 10.2799C12.8264 12.5794 10.9876 13.876 8.47776 14.2457C8.15739 14.2931 8.03417 14.1869 8.07208 13.8741C8.07398 13.859 8.07398 13.8419 8.07208 13.8267C7.90147 12.7955 8.22942 11.9955 9.06161 11.3245C9.74405 10.7747 10.3336 10.1036 10.9402 9.4648C11.1791 9.21268 11.4331 9.08188 11.7705 9.13875C12.6463 9.2904 13.3288 8.99847 13.8463 8.28001C13.9923 8.07717 14.1704 7.89898 14.3335 7.70752C14.3828 7.73785 14.4339 7.76629 14.4832 7.79662L14.4851 7.80041Z" fill="#F0DDB4"/>
<path d="M8.11947 11.3242C8.05312 10.82 7.99625 10.3821 8.46069 9.96692C9.35165 9.16695 10.182 8.30062 11.0179 7.44378C11.2454 7.21061 11.4786 7.06844 11.8047 7.12341C12.6956 7.27507 13.3951 7.00019 13.9145 6.24382C14.0396 6.05994 14.1989 5.87038 14.4832 5.76611C14.4965 6.27984 14.6235 6.77651 14.1231 7.13289C14.0093 7.21441 13.9088 7.32246 13.8235 7.4343C13.1999 8.25134 12.4302 8.71767 11.3592 8.49967C11.1146 8.45038 10.9478 8.59066 10.7848 8.75558C10.0303 9.51764 9.27204 10.274 8.50998 11.0285C8.40192 11.1347 8.3242 11.2844 8.11947 11.3223V11.3242Z" fill="#F0DDB4"/>
<path d="M7.478 10.8237C7.478 11.8455 7.478 12.8672 7.478 13.889C7.478 14.0748 7.51212 14.3098 7.20502 14.2454C6.97754 14.1961 6.62495 14.3326 6.62684 13.889C6.63063 11.8132 6.63253 9.73749 6.62305 7.66362C6.62305 7.29397 6.86191 7.37927 7.06854 7.36411C7.32256 7.34515 7.48748 7.38875 7.48369 7.70912C7.47042 8.74605 7.478 9.78488 7.478 10.8218V10.8237Z" fill="#F0DDB4"/>
<path d="M6.03966 11.7584C6.03966 12.403 6.03208 13.0494 6.04345 13.6939C6.04725 13.9498 5.9828 14.0181 5.71551 13.946C4.8852 13.7261 4.85676 13.7034 4.85676 12.8333C4.85676 11.8741 4.86814 10.913 4.85108 9.95377C4.8435 9.60307 4.91932 9.44383 5.31741 9.459C6.17994 9.49501 6.03018 9.40213 6.03966 10.2002C6.04724 10.7196 6.03966 11.239 6.03966 11.7584Z" fill="#F0DDB4"/>
<path d="M4.24487 13.2427C3.62688 12.8863 3.13779 12.6058 3.19845 11.7982C3.27997 10.7329 3.23826 9.65422 3.20793 8.58317C3.19655 8.14716 3.44678 8.18887 3.71786 8.19645C3.97378 8.20403 4.25623 8.11304 4.25055 8.56421C4.22969 10.0921 4.24297 11.6219 4.24297 13.2446L4.24487 13.2427Z" fill="#F0DDB4"/>
<path d="M2.62978 11.8287C2.12363 11.315 1.85445 10.7918 1.60423 10.2591C1.58527 10.2212 1.57389 10.1415 1.58906 10.1321C1.84876 9.97662 2.13311 10.0809 2.40609 10.06C2.59945 10.0449 2.63357 10.1757 2.63168 10.3368C2.62788 10.7899 2.63168 11.2448 2.63168 11.8306L2.62978 11.8287Z" fill="#F0DDB4"/>
<path d="M13.8484 3.06663C13.5962 3.34719 13.3725 3.59742 13.1432 3.84386C13.1375 3.85144 13.0787 3.83059 13.0654 3.80973C12.9119 3.57088 12.7261 3.36615 12.4778 3.22018C12.4209 3.18606 12.3906 3.10075 12.4512 3.06474C12.711 2.9074 12.9119 2.69887 13.0692 2.44106C13.1034 2.38419 13.1887 2.3804 13.2247 2.44485C13.3744 2.71025 13.5792 2.91687 13.8446 3.06474C13.8635 3.07421 13.8616 3.11971 13.8465 3.06474L13.8484 3.06663Z" fill="#846936"/>
<path d="M4.29034 6.44481C2.88755 6.43154 1.7691 5.28655 1.79943 3.89703C1.83166 2.52267 2.97096 1.4137 4.33584 1.42886C5.70641 1.44403 6.82485 2.57195 6.82675 3.94252C6.82675 5.33584 5.69314 6.45808 4.29034 6.44481ZM2.42122 3.95958C2.42501 5.00599 3.27237 5.84957 4.31499 5.84578C5.35382 5.84198 6.21445 4.98325 6.21066 3.9539C6.20687 2.89611 5.33107 2.01842 4.28466 2.0279C3.27806 2.03548 2.41742 2.92834 2.42122 3.96148V3.95958Z" fill="#846936"/>
<path d="M2.42091 3.95954C2.41712 2.9264 3.27776 2.03354 4.28436 2.02595C5.33077 2.01648 6.20656 2.89417 6.21035 3.95196C6.21414 4.9813 5.35351 5.84004 4.31468 5.84383C3.27206 5.84763 2.4247 5.00405 2.42091 3.95764V3.95954ZM4.39619 3.20317C4.4796 3.19369 4.59903 3.37378 4.77343 3.38136C4.90992 3.38705 5.08054 3.4496 5.17153 3.3188C5.26821 3.18042 5.15257 3.04203 5.06537 2.94156C4.88528 2.73683 4.63695 2.60982 4.50615 2.33495C4.45496 2.2269 4.11563 2.17571 4.01327 2.45059C3.96967 2.56433 3.91659 2.63257 3.80475 2.67996C3.46542 2.82214 3.27586 3.06857 3.31378 3.4515C3.35169 3.85149 3.61897 4.05243 3.96587 4.17564C4.1289 4.23252 4.29762 4.26853 4.45875 4.33299C4.55923 4.3728 4.67485 4.43725 4.654 4.56805C4.62746 4.73676 4.47582 4.70643 4.3545 4.72349C4.16303 4.75193 4.03791 4.5889 3.87109 4.56615C3.72323 4.5453 3.53367 4.48085 3.43888 4.64767C3.35737 4.78984 3.46732 4.93202 3.57348 5.01732C3.80096 5.19741 3.94502 5.47797 4.15544 5.63152C4.50993 5.88933 4.56491 5.34148 4.82082 5.26186C4.85115 5.25239 4.8758 5.23343 4.90233 5.21637C5.4407 4.88083 5.45587 4.27232 4.94215 3.90077C4.71656 3.73775 4.44548 3.70931 4.19715 3.61263C4.07583 3.56524 3.93934 3.50268 3.97346 3.35292C4.00759 3.20317 4.16682 3.22212 4.39619 3.20317Z" fill="#F0DDB4"/>
<path d="M4.39638 3.20341C4.167 3.22237 4.00967 3.20341 3.97365 3.35317C3.93953 3.50293 4.07601 3.56549 4.19734 3.61288C4.44567 3.70766 4.71485 3.73799 4.94233 3.90102C5.45606 4.27068 5.44089 4.88108 4.90252 5.21662C4.87598 5.23368 4.84944 5.25263 4.82101 5.26211C4.56509 5.34173 4.51011 5.89148 4.15562 5.63177C3.94331 5.47822 3.80114 5.19955 3.57366 5.01757C3.46751 4.93227 3.35755 4.79009 3.43907 4.64792C3.53385 4.48299 3.72341 4.54744 3.87127 4.5664C4.03809 4.58915 4.16511 4.75218 4.35468 4.72374C4.476 4.70668 4.62765 4.73512 4.65419 4.5683C4.67504 4.4356 4.55941 4.37304 4.45894 4.33323C4.2997 4.26878 4.12909 4.23276 3.96606 4.17589C3.61915 4.05457 3.35187 3.85363 3.31396 3.45175C3.27794 3.06882 3.46561 2.82238 3.80493 2.68021C3.91677 2.63282 3.96985 2.56647 4.01345 2.45083C4.11771 2.17786 4.45515 2.22714 4.50633 2.3352C4.63713 2.61007 4.88547 2.73518 5.06555 2.94181C5.15465 3.04418 5.26839 3.18256 5.17171 3.31905C5.08072 3.44796 4.9101 3.38729 4.77361 3.38161C4.59732 3.37402 4.47979 3.19394 4.39638 3.20341Z" fill="#846936"/>
</svg>
