<svg width="100" height="67" viewBox="0 0 100 67" fill="none" xmlns="http://www.w3.org/2000/svg">
<rect x="59.0809" y="19.286" width="40.4389" height="34.7396" rx="5" fill="#D5AB00"/>
<path d="M92.6504 24.8492H65.9502C63.1888 24.8492 60.9502 27.0878 60.9502 29.8492V45.5232C60.9502 48.2846 63.1888 50.5232 65.9502 50.5232H92.6504C95.4119 50.5232 97.6504 48.2846 97.6504 45.5232V29.8492C97.6504 27.0878 95.4119 24.8492 92.6504 24.8492Z" fill="#1C2132"/>
<path d="M66.5227 15.7755C66.5227 15.0939 66.1305 14.5751 65.6946 14.2668C65.2562 13.9568 64.7028 13.7966 64.1383 13.7966C63.5739 13.7966 63.0205 13.9568 62.5821 14.2668C62.1462 14.5751 61.754 15.0939 61.754 15.7755V20.168C61.754 20.8496 62.1462 21.3685 62.5821 21.6767C63.0205 21.9867 63.5739 22.147 64.1383 22.147C64.7028 22.147 65.2562 21.9867 65.6946 21.6767C66.1305 21.3685 66.5227 20.8496 66.5227 20.168V15.7755Z" fill="white" stroke="#1C2132" stroke-width="2"/>
<path d="M74.1037 15.7755C74.1037 15.0939 73.7115 14.5751 73.2756 14.2668C72.8372 13.9568 72.2838 13.7966 71.7193 13.7966C71.1548 13.7966 70.6015 13.9568 70.1631 14.2668C69.7272 14.5751 69.335 15.0939 69.335 15.7755V20.168C69.335 20.8496 69.7272 21.3685 70.1631 21.6767C70.6015 21.9867 71.1548 22.147 71.7193 22.147C72.2838 22.147 72.8372 21.9867 73.2756 21.6767C73.7115 21.3685 74.1037 20.8496 74.1037 20.168V15.7755Z" fill="white" stroke="#1C2132" stroke-width="2"/>
<path d="M81.6847 15.7755C81.6847 15.0939 81.2925 14.5751 80.8566 14.2668C80.4182 13.9568 79.8648 13.7966 79.3003 13.7966C78.7358 13.7966 78.1825 13.9568 77.744 14.2668C77.3082 14.5751 76.916 15.0939 76.916 15.7755V20.168C76.916 20.8496 77.3082 21.3685 77.744 21.6767C78.1825 21.9867 78.7358 22.147 79.3003 22.147C79.8648 22.147 80.4182 21.9867 80.8566 21.6767C81.2925 21.3685 81.6847 20.8496 81.6847 20.168V15.7755Z" fill="white" stroke="#1C2132" stroke-width="2"/>
<path d="M89.2657 15.7755C89.2657 15.0939 88.8735 14.5751 88.4376 14.2668C87.9992 13.9568 87.4458 13.7966 86.8813 13.7966C86.3168 13.7966 85.7634 13.9568 85.325 14.2668C84.8891 14.5751 84.4969 15.0939 84.4969 15.7755V20.168C84.4969 20.8496 84.8891 21.3685 85.325 21.6767C85.7634 21.9867 86.3168 22.147 86.8813 22.147C87.4458 22.147 87.9992 21.9867 88.4376 21.6767C88.8735 21.3685 89.2657 20.8496 89.2657 20.168V15.7755Z" fill="white" stroke="#1C2132" stroke-width="2"/>
<path d="M96.8467 15.7755C96.8467 15.0939 96.4545 14.5751 96.0186 14.2668C95.5802 13.9568 95.0268 13.7966 94.4623 13.7966C93.8978 13.7966 93.3444 13.9568 92.906 14.2668C92.4701 14.5751 92.0779 15.0939 92.0779 15.7755V20.168C92.0779 20.8496 92.4701 21.3685 92.906 21.6767C93.3444 21.9867 93.8978 22.147 94.4623 22.147C95.0268 22.147 95.5802 21.9867 96.0186 21.6767C96.4545 21.3685 96.8467 20.8496 96.8467 20.168V15.7755Z" fill="white" stroke="#1C2132" stroke-width="2"/>
<path d="M76.3026 46.3686L81.4604 33.6725H76.6553V36.4718H73.856V30.9834H84.7447V33.8488L79.7852 46.3686H76.3026Z" fill="#07E98A"/>
<rect x="36.1114" y="15.9659" width="49.3154" height="42.3651" rx="5" fill="#D5AB00"/>
<path d="M78.1472 22.7503H43.3911C40.6296 22.7503 38.3911 24.9889 38.3911 27.7503V49.0598C38.3911 51.8213 40.6296 54.0598 43.3911 54.0598H78.1472C80.9086 54.0598 83.1472 51.8213 83.1472 49.0598V27.7503C83.1472 24.9889 80.9086 22.7503 78.1472 22.7503Z" fill="#1C2132"/>
<path d="M44.9673 11.6849C44.9673 10.944 44.541 10.3714 44.0502 10.0243C43.5568 9.67537 42.9274 9.49109 42.279 9.49109C41.6306 9.49109 41.0013 9.67537 40.5079 10.0243C40.017 10.3714 39.5908 10.944 39.5908 11.6849V17.0416C39.5908 17.7825 40.017 18.3551 40.5079 18.7022C41.0013 19.0511 41.6306 19.2354 42.279 19.2354C42.9274 19.2354 43.5568 19.0511 44.0502 18.7022C44.541 18.3551 44.9673 17.7825 44.9673 17.0416V11.6849Z" fill="white" stroke="#1C2132" stroke-width="2"/>
<path d="M54.2123 11.6849C54.2123 10.944 53.7861 10.3714 53.2952 10.0243C52.8018 9.67537 52.1725 9.49109 51.5241 9.49109C50.8757 9.49109 50.2463 9.67537 49.7529 10.0243C49.262 10.3714 48.8358 10.944 48.8358 11.6849V17.0416C48.8358 17.7825 49.262 18.3551 49.7529 18.7022C50.2463 19.0511 50.8757 19.2354 51.5241 19.2354C52.1725 19.2354 52.8018 19.0511 53.2952 18.7022C53.7861 18.3551 54.2123 17.7825 54.2123 17.0416V11.6849Z" fill="white" stroke="#1C2132" stroke-width="2"/>
<path d="M63.4574 11.6849C63.4574 10.944 63.0312 10.3714 62.5403 10.0243C62.0469 9.67537 61.4175 9.49109 60.7691 9.49109C60.1207 9.49109 59.4914 9.67537 58.998 10.0243C58.5071 10.3714 58.0809 10.944 58.0809 11.6849V17.0416C58.0809 17.7825 58.5071 18.3551 58.998 18.7022C59.4914 19.0511 60.1207 19.2354 60.7691 19.2354C61.4175 19.2354 62.0469 19.0511 62.5403 18.7022C63.0312 18.3551 63.4574 17.7825 63.4574 17.0416V11.6849Z" fill="white" stroke="#1C2132" stroke-width="2"/>
<path d="M72.7024 11.6849C72.7024 10.944 72.2762 10.3714 71.7853 10.0243C71.2919 9.67537 70.6626 9.49109 70.0142 9.49109C69.3658 9.49109 68.7364 9.67537 68.243 10.0243C67.7521 10.3714 67.3259 10.944 67.3259 11.6849V17.0416C67.3259 17.7825 67.7521 18.3551 68.243 18.7022C68.7364 19.0511 69.3658 19.2354 70.0142 19.2354C70.6626 19.2354 71.2919 19.0511 71.7853 18.7022C72.2762 18.3551 72.7024 17.7825 72.7024 17.0416V11.6849Z" fill="white" stroke="#1C2132" stroke-width="2"/>
<path d="M81.9475 11.6849C81.9475 10.944 81.5213 10.3714 81.0304 10.0243C80.537 9.67537 79.9076 9.49109 79.2592 9.49109C78.6108 9.49109 77.9815 9.67537 77.4881 10.0243C76.9972 10.3714 76.571 10.944 76.571 11.6849V17.0416C76.571 17.7825 76.9972 18.3551 77.4881 18.7022C77.9815 19.0511 78.6108 19.2354 79.2592 19.2354C79.9076 19.2354 80.537 19.0511 81.0304 18.7022C81.5213 18.3551 81.9475 17.7825 81.9475 17.0416V11.6849Z" fill="white" stroke="#1C2132" stroke-width="2"/>
<path d="M57.1133 48.9934L63.4033 33.5104H57.5434V36.9242H54.1296V30.231H67.4085V33.7254L61.3604 48.9934H57.1133Z" fill="#07E98A"/>
<rect x="0.687988" y="9.61068" width="66.3069" height="56.9619" rx="5" fill="#D5AB00"/>
<path d="M58.9299 18.7327H8.75311C5.99169 18.7327 3.75311 20.9712 3.75311 23.7327V55.8298C3.75311 58.5912 5.99169 60.8298 8.75312 60.8298H58.9299C61.6913 60.8298 63.9299 58.5912 63.9299 55.8298V23.7327C63.9299 20.9712 61.6913 18.7327 58.9299 18.7327Z" fill="#1C2132"/>
<path d="M12.2506 3.85471C12.2506 3.00017 11.7592 2.32476 11.1631 1.90319C10.5644 1.47984 9.78966 1.24951 8.98063 1.24951C8.1716 1.24951 7.39683 1.47984 6.79816 1.90319C6.20201 2.32476 5.71069 3.00017 5.71069 3.85471V11.0569C5.71069 11.9115 6.20201 12.5869 6.79816 13.0085C7.39683 13.4318 8.1716 13.6621 8.98063 13.6621C9.78966 13.6621 10.5644 13.4318 11.1631 13.0085C11.7592 12.5869 12.2506 11.9115 12.2506 11.0569V3.85471Z" fill="white" stroke="#1C2132" stroke-width="2"/>
<path d="M24.681 3.85471C24.681 3.00017 24.1897 2.32476 23.5935 1.90319C22.9948 1.47984 22.2201 1.24951 21.411 1.24951C20.602 1.24951 19.8272 1.47984 19.2286 1.90319C18.6324 2.32476 18.1411 3.00017 18.1411 3.85471V11.0569C18.1411 11.9115 18.6324 12.5869 19.2286 13.0085C19.8272 13.4318 20.602 13.6621 21.411 13.6621C22.2201 13.6621 22.9948 13.4318 23.5935 13.0085C24.1897 12.5869 24.681 11.9115 24.681 11.0569V3.85471Z" fill="white" stroke="#1C2132" stroke-width="2"/>
<path d="M37.1114 3.85471C37.1114 3.00017 36.6201 2.32476 36.0239 1.90319C35.4253 1.47984 34.6505 1.24951 33.8415 1.24951C33.0324 1.24951 32.2577 1.47984 31.659 1.90319C31.0629 2.32476 30.5715 3.00017 30.5715 3.85471V11.0569C30.5715 11.9115 31.0629 12.5869 31.659 13.0085C32.2577 13.4318 33.0324 13.6621 33.8415 13.6621C34.6505 13.6621 35.4253 13.4318 36.0239 13.0085C36.6201 12.5869 37.1114 11.9115 37.1114 11.0569V3.85471Z" fill="white" stroke="#1C2132" stroke-width="2"/>
<path d="M49.5418 3.85471C49.5418 3.00017 49.0505 2.32476 48.4543 1.90319C47.8557 1.47984 47.0809 1.24951 46.2719 1.24951C45.4629 1.24951 44.6881 1.47984 44.0894 1.90319C43.4933 2.32476 43.002 3.00017 43.002 3.85471V11.0569C43.002 11.9115 43.4933 12.5869 44.0894 13.0085C44.6881 13.4318 45.4629 13.6621 46.2719 13.6621C47.0809 13.6621 47.8557 13.4318 48.4543 13.0085C49.0505 12.5869 49.5418 11.9115 49.5418 11.0569V3.85471Z" fill="white" stroke="#1C2132" stroke-width="2"/>
<path d="M61.9723 3.85471C61.9723 3.00017 61.481 2.32476 60.8848 1.90319C60.2862 1.47984 59.5114 1.24951 58.7024 1.24951C57.8933 1.24951 57.1186 1.47984 56.5199 1.90319C55.9238 2.32476 55.4324 3.00017 55.4324 3.85471V11.0569C55.4324 11.9115 55.9238 12.5869 56.5199 13.0085C57.1186 13.4318 57.8933 13.6621 58.7024 13.6621C59.5114 13.6621 60.2862 13.4318 60.8848 13.0085C61.481 12.5869 61.9723 11.9115 61.9723 11.0569V3.85471Z" fill="white" stroke="#1C2132" stroke-width="2"/>
<path d="M28.9262 54.0177L37.3834 33.2H29.5044V37.79H24.9144V28.7907H42.7685V33.4892L34.6366 54.0177H28.9262Z" fill="#D5AB00"/>
</svg>
