<svg width="149" height="150" viewBox="0 0 149 150" fill="none" xmlns="http://www.w3.org/2000/svg">
<circle cx="74.4365" cy="75.2992" r="74.3434" fill="#2C6733" fill-opacity="0.3"/>
<path d="M74.5564 36.8707C62.4864 36.8707 50.4163 36.9207 38.3463 36.8307C36.2063 36.8107 35.4663 37.3307 35.4863 39.6007C35.6063 49.5007 35.4964 59.4007 35.5564 69.2907C35.5764 73.1007 35.3863 76.9107 35.9863 80.7307C39.1063 100.861 57.1064 116.161 79.5464 113.471C98.8064 111.161 113.256 94.4407 113.316 75.0207C113.356 63.2907 113.256 51.5607 113.376 39.8407C113.406 37.3607 112.596 36.8007 110.256 36.8307C98.3563 36.9407 86.4464 36.8807 74.5464 36.8807L74.5564 36.8707Z" fill="#171A1E"/>
<path d="M74.5563 36.8707C86.4563 36.8707 98.3663 36.9307 110.266 36.8207C112.606 36.8007 113.416 37.3507 113.386 39.8307C113.256 51.5607 113.366 63.2807 113.326 75.0107C113.256 94.4307 98.8163 111.161 79.5563 113.461C57.1163 116.151 39.1163 100.851 35.9963 80.7207C35.4063 76.9007 35.5864 73.0907 35.5664 69.2807C35.5064 59.3807 35.6163 49.4807 35.4963 39.5907C35.4663 37.3307 36.2163 36.8107 38.3563 36.8207C50.4263 36.9107 62.4964 36.8607 74.5664 36.8607L74.5563 36.8707ZM107.406 40.4707C107.276 40.2707 107.136 40.0707 107.006 39.8707C101.346 39.8707 95.6663 40.2407 90.0463 39.7707C84.2863 39.2907 79.6363 40.5307 76.2763 45.4307C76.1363 45.6307 75.9063 45.7707 75.7563 45.9607C74.9063 47.0607 74.1363 47.0907 73.1463 46.0207C71.5763 44.3107 69.8563 42.7207 68.2263 41.0607C67.5763 40.4007 66.9463 39.8507 65.8963 39.8507C57.3263 39.8807 48.7463 39.8707 40.1763 39.8607C39.1963 39.8607 38.5963 40.0907 38.6263 41.2507C38.6463 42.4807 39.4363 42.5307 40.3063 42.5407C42.1363 42.5507 43.9663 42.5907 45.7963 42.5407C46.9963 42.5107 47.6363 42.8307 47.6463 44.2007C47.6463 45.5807 47.0364 45.9107 45.8164 45.8607C44.1564 45.8007 42.4764 45.9507 40.8264 45.8207C39.0464 45.6807 38.5763 46.3707 38.5963 48.0907C38.6663 57.4007 38.5363 66.7207 38.6663 76.0307C38.7463 81.4107 40.1663 86.5307 42.6363 91.3507C43.2763 92.6007 43.8063 93.2207 45.1063 91.8507C48.0263 88.7707 51.0263 85.7707 54.1063 82.8607C55.3063 81.7307 55.0263 81.1207 53.9963 80.1207C50.5263 76.7707 47.1963 73.2707 43.7163 69.9307C42.5063 68.7707 42.6263 68.0407 43.7563 66.9307C48.9863 61.8007 54.0962 56.5707 59.3362 51.4507C61.2162 49.6107 62.9463 46.1207 65.1063 46.4307C67.3063 46.7507 69.0662 49.9207 71.0863 51.7607C72.2463 52.8107 72.0963 53.5507 71.0163 54.5807C67.7263 57.7607 64.5263 61.0307 61.2963 64.2707C57.0163 68.5607 57.0563 68.5107 61.4163 72.7507C62.5263 73.8307 63.1364 73.8307 64.1964 72.7507C68.9164 67.9407 73.6463 63.1407 78.5063 58.4707C79.8763 57.1507 80.0063 56.2807 78.4763 55.1807C76.6663 53.8707 76.4363 52.5407 78.4163 51.1507C78.8863 50.8207 79.2463 50.3407 79.6563 49.9207C83.8663 45.7107 83.8264 45.7507 88.0764 49.9007C89.6564 51.4407 90.9663 54.1907 92.9763 54.1307C94.9663 54.0707 96.2763 51.3607 97.8863 49.8107C101.096 46.7307 104.246 43.5707 107.416 40.4407L107.406 40.4707ZM110.316 43.0107C110.056 42.8507 109.796 42.6807 109.526 42.5207C105.006 47.1507 100.506 51.8007 95.9663 56.4107C94.9363 57.4607 96.0163 57.8707 96.5063 58.3707C99.3563 61.2807 102.226 64.1807 105.156 67.0207C106.196 68.0207 106.396 68.7107 105.256 69.8407C98.5663 76.4407 91.9163 83.1007 85.3063 89.7807C84.2663 90.8307 83.5563 91.0307 82.5063 89.8207C81.1963 88.3207 79.7763 86.8907 78.2563 85.6007C76.7063 84.2807 76.6562 83.3207 78.2062 81.8607C81.9062 78.3907 85.4363 74.7407 89.0263 71.1507C91.8863 68.2807 91.8263 68.1307 88.7163 65.5507C87.8463 64.8307 87.3263 64.9607 86.6263 65.6607C81.6363 70.6707 76.6163 75.6607 71.6263 80.6707C71.2363 81.0607 70.4863 81.5807 71.0163 82.1007C73.1163 84.1807 70.9463 85.0607 69.9163 86.2107C68.9763 87.2607 67.8364 88.1507 66.9464 89.2407C65.6164 90.8707 64.5163 91.1407 63.0563 89.3207C61.8163 87.7707 60.2463 86.4907 58.8763 85.0407C58.0963 84.2107 57.4763 84.0907 56.6063 84.9807C53.2863 88.3707 49.9463 91.7307 46.5563 95.0507C45.6763 95.9107 45.8263 96.5407 46.5363 97.3607C48.5663 99.6907 50.7963 101.781 53.1763 103.761C54.8263 105.131 56.4863 105.361 58.4963 104.991C60.1163 104.691 60.5563 104.221 59.4363 102.821C58.7163 101.921 57.7863 100.931 58.4163 99.6907C59.6563 97.2607 61.5764 95.3607 63.9464 94.0907C65.8364 93.0807 66.8463 95.2207 68.3063 95.8007C68.4463 95.8607 68.6063 95.8507 68.7663 95.8707C70.5763 90.8007 70.7363 90.6807 75.2663 90.7907C79.2663 90.8907 79.3363 90.9507 80.7863 95.8707C82.2963 95.5907 83.1163 93.5907 84.6663 93.8807C87.4863 94.4107 88.9763 96.8007 90.6563 98.8507C92.0063 100.501 90.8863 101.771 89.9763 103.081C89.5563 103.691 88.9263 104.431 90.1763 104.791C91.6063 105.201 93.0463 105.621 94.4763 104.621C98.3963 101.861 101.726 98.5307 104.386 94.5407C105.136 93.4207 105.256 92.7407 103.536 92.8407C102.376 92.9107 101.206 92.8107 100.036 92.8607C98.1563 92.9307 98.2563 91.6507 98.5563 90.5107C98.8763 89.2707 100.076 89.7707 100.906 89.7507C105.493 89.6707 108.306 87.374 109.346 82.8607C109.546 81.9707 109.746 81.0707 109.826 80.1707C110.806 67.8007 109.906 55.4207 110.316 43.0507V43.0107ZM95.9163 68.6207C95.5163 69.0707 95.0963 69.5807 94.6363 70.0407C90.5263 74.1607 86.4463 78.3107 82.2663 82.3607C81.1263 83.4607 81.1964 84.1007 82.3164 85.1307C83.2864 86.0107 83.8264 86.5807 85.0664 85.3307C90.1864 80.1107 95.3963 74.9707 100.656 69.8807C101.806 68.7707 101.636 68.1107 100.606 67.0907C95.5063 62.0707 90.4563 57.0207 85.4263 51.9307C84.3863 50.8707 83.6763 50.4907 82.4263 51.7907C81.2263 53.0307 81.4263 53.7007 82.5563 54.7907C86.6163 58.7307 90.5864 62.7607 94.5764 66.7607C95.0964 67.2807 95.7463 67.7107 95.9263 68.6207H95.9163ZM47.1863 68.4307C47.5263 68.8707 47.7863 69.2807 48.1163 69.6207C53.3163 74.8707 58.5662 80.0707 63.7062 85.3707C64.8862 86.5907 65.4462 86.1707 66.4562 85.2207C67.5662 84.1807 67.6263 83.5807 66.5063 82.4707C62.3063 78.3407 58.2463 74.0607 54.0463 69.9307C52.8863 68.7907 52.8763 68.0807 54.0463 66.9507C58.1563 62.9607 62.1463 58.8507 66.2463 54.8407C67.2863 53.8207 67.7763 53.1307 66.4763 51.8507C65.2963 50.6807 64.6063 50.7307 63.4863 51.8707C58.4863 56.9707 53.4063 61.9807 48.3563 67.0407C47.9563 67.4407 47.6163 67.9107 47.1863 68.4307ZM61.2163 108.001C63.5629 109.121 65.1596 108.654 66.0063 106.601C66.1963 106.141 66.4163 105.691 66.6863 105.281C68.9063 101.901 72.0663 100.411 76.0463 100.901C79.9463 101.381 82.7263 103.561 83.7963 107.321C84.3463 109.251 85.1363 109.251 86.5563 108.601C86.9963 108.401 87.4463 108.211 87.9163 108.001C85.6763 105.921 85.1863 104.101 86.6363 102.181C87.7663 100.691 87.3863 99.7707 86.2363 98.5707C84.9463 97.2207 84.0363 97.7807 82.8463 98.6507C80.6063 100.291 77.7363 99.0607 77.3863 96.3107C77.1863 94.7707 76.7663 93.9507 74.9663 93.9207C73.1763 93.8907 72.4863 94.5107 72.1863 96.2307C71.6563 99.2907 68.9163 100.371 66.4263 98.4607C65.0363 97.3907 64.2463 97.6707 63.1063 98.7807C61.9263 99.9307 61.8063 100.771 62.8563 102.111C64.5163 104.241 63.7962 106.651 61.2062 108.001H61.2163ZM67.7963 79.6907C68.6063 79.0007 68.9363 78.7607 69.2263 78.4707C74.2763 73.4307 79.3063 68.3507 84.3963 63.3507C85.8663 61.9107 84.3363 61.4107 83.7263 60.6007C82.9163 59.5207 82.1563 59.4007 81.1163 60.4607C76.2263 65.4307 71.2663 70.3307 66.3463 75.2707C65.9063 75.7107 65.1463 76.1207 65.6863 76.9107C66.3363 77.8607 67.0763 78.7507 67.7863 79.6807L67.7963 79.6907ZM74.5463 110.501C74.5463 110.571 74.5463 110.641 74.5463 110.711C76.1163 110.631 77.6963 110.581 79.2663 110.461C80.7563 110.351 81.2963 109.631 80.7463 108.121C79.8463 105.651 77.2863 103.961 74.4863 104.091C71.7663 104.221 69.3164 106.251 68.6964 108.781C68.4364 109.851 68.7564 110.431 69.8164 110.471C71.3864 110.531 72.9663 110.491 74.5463 110.491V110.501ZM72.1163 39.9907C74.5363 42.9407 75.0564 42.9007 76.3164 39.9907H72.1163Z" fill="#436965"/>
<path d="M107.406 40.4707C104.236 43.6007 101.086 46.7507 97.8763 49.8407C96.2663 51.3807 94.9563 54.1007 92.9663 54.1607C90.9563 54.2207 89.6464 51.4707 88.0664 49.9307C83.8164 45.7807 83.8463 45.7507 79.6463 49.9507C79.2363 50.3607 78.8764 50.8507 78.4063 51.1807C76.4263 52.5707 76.6563 53.9107 78.4663 55.2107C79.9963 56.3107 79.8663 57.1807 78.4963 58.5007C73.6463 63.1707 68.9064 67.9707 64.1864 72.7807C63.1264 73.8607 62.5163 73.8607 61.4063 72.7807C57.0463 68.5407 57.0064 68.5907 61.2864 64.3007C64.5164 61.0607 67.7163 57.7907 71.0063 54.6107C72.0863 53.5707 72.2364 52.8407 71.0764 51.7907C69.0464 49.9507 67.2963 46.7707 65.0963 46.4607C62.9363 46.1507 61.2064 49.6307 59.3264 51.4807C54.0964 56.6007 48.9763 61.8407 43.7463 66.9607C42.6063 68.0707 42.4963 68.8007 43.7063 69.9607C47.1863 73.3007 50.5163 76.8007 53.9863 80.1507C55.0163 81.1507 55.2963 81.7507 54.0963 82.8907C51.0063 85.8007 48.0063 88.8007 45.0963 91.8807C43.7963 93.2507 43.2663 92.6307 42.6263 91.3807C40.1663 86.5707 38.7363 81.4407 38.6563 76.0607C38.5163 66.7507 38.6563 57.4307 38.5863 48.1207C38.5763 46.4007 39.0364 45.7107 40.8164 45.8507C42.4664 45.9807 44.1464 45.8307 45.8064 45.8907C47.0264 45.9307 47.6363 45.6007 47.6363 44.2307C47.6363 42.8607 46.9864 42.5407 45.7864 42.5707C43.9564 42.6107 42.1264 42.5707 40.2964 42.5707C39.4264 42.5707 38.6363 42.5107 38.6163 41.2807C38.5963 40.1207 39.1964 39.8907 40.1664 39.8907C48.7364 39.9007 57.3163 39.9107 65.8863 39.8807C66.9363 39.8807 67.5663 40.4307 68.2163 41.0907C69.8563 42.7407 71.5663 44.3307 73.1363 46.0507C74.1263 47.1207 74.8963 47.0907 75.7463 45.9907C75.8963 45.7907 76.1263 45.6607 76.2663 45.4607C79.6263 40.5607 84.2764 39.3207 90.0364 39.8007C95.6564 40.2707 101.336 39.9007 106.996 39.9007C107.126 40.1007 107.266 40.3007 107.396 40.5007L107.406 40.4707ZM49.0764 50.7807C50.7264 50.7807 52.3864 50.7507 54.0364 50.7907C55.2364 50.8207 55.6063 50.2707 55.6163 49.1407C55.6263 47.9407 55.0763 47.5507 53.9663 47.5607C50.7463 47.5907 47.5164 47.5907 44.2964 47.5607C43.1264 47.5507 42.7063 48.0607 42.7063 49.2107C42.7063 50.4007 43.2263 50.8307 44.3663 50.7907C45.9363 50.7507 47.5064 50.7807 49.0764 50.7807Z" fill="#CDE4CC"/>
<path d="M110.316 43.0107C109.906 55.3807 110.806 67.7607 109.826 80.1307C109.756 81.0407 109.556 81.9407 109.346 82.8207C108.306 87.3407 105.493 89.6374 100.906 89.7107C100.076 89.7307 98.8863 89.2307 98.5563 90.4707C98.2563 91.6107 98.1563 92.8907 100.036 92.8207C101.196 92.7807 102.366 92.8707 103.536 92.8007C105.256 92.7007 105.126 93.3807 104.386 94.5007C101.726 98.5007 98.3962 101.821 94.4762 104.581C93.0462 105.591 91.6063 105.171 90.1763 104.751C88.9263 104.391 89.5562 103.651 89.9762 103.041C90.8862 101.731 92.0163 100.471 90.6563 98.8107C88.9763 96.7607 87.4863 94.3707 84.6663 93.8407C83.1263 93.5507 82.2963 95.5507 80.7863 95.8307C79.3363 90.9107 79.2663 90.8507 75.2662 90.7507C70.7362 90.6407 70.5762 90.7707 68.7662 95.8407C68.6162 95.8207 68.4463 95.8207 68.3063 95.7707C66.8463 95.1907 65.8363 93.0507 63.9463 94.0607C61.5763 95.3307 59.6563 97.2307 58.4163 99.6607C57.7863 100.901 58.7163 101.891 59.4363 102.791C60.5563 104.191 60.1162 104.661 58.4962 104.961C56.4862 105.331 54.8163 105.111 53.1763 103.731C50.8063 101.751 48.5663 99.6607 46.5363 97.3307C45.8263 96.5107 45.6763 95.8807 46.5563 95.0207C49.9463 91.7007 53.2962 88.3407 56.6062 84.9507C57.4662 84.0707 58.0862 84.1907 58.8762 85.0107C60.2462 86.4607 61.8163 87.7407 63.0563 89.2907C64.5163 91.1107 65.6163 90.8407 66.9463 89.2107C67.8363 88.1207 68.9763 87.2407 69.9163 86.1807C70.9463 85.0307 73.1062 84.1507 71.0162 82.0707C70.4962 81.5507 71.2462 81.0307 71.6262 80.6407C76.6262 75.6307 81.6362 70.6407 86.6262 65.6307C87.3262 64.9307 87.8462 64.7907 88.7162 65.5207C91.8362 68.1107 91.8863 68.2607 89.0263 71.1207C85.4463 74.7107 81.9062 78.3607 78.2062 81.8307C76.6462 83.2907 76.7062 84.2407 78.2562 85.5707C79.7662 86.8607 81.1862 88.2907 82.5062 89.7907C83.5662 91.0007 84.2763 90.8007 85.3063 89.7507C91.9163 83.0707 98.5662 76.4107 105.256 69.8107C106.396 68.6807 106.196 67.9907 105.156 66.9907C102.226 64.1607 99.3562 61.2607 96.5062 58.3407C96.0162 57.8407 94.9262 57.4307 95.9662 56.3807C100.506 51.7707 105.006 47.1307 109.526 42.4907C109.786 42.6507 110.046 42.8207 110.316 42.9807V43.0107ZM98.8163 84.2807C98.1563 84.2807 97.4863 84.3007 96.8263 84.2807C95.7563 84.2507 94.8862 84.2907 94.8362 85.7707C94.7762 87.4307 95.7563 87.4207 96.9063 87.4007C98.1463 87.3807 99.3962 87.3707 100.636 87.4007C101.666 87.4207 102.396 87.2507 102.396 85.9507C102.396 84.6207 101.776 84.1907 100.546 84.2807C99.9663 84.3207 99.3863 84.2807 98.8063 84.2807H98.8163Z" fill="#CDE4CC"/>
<path d="M95.9163 68.6207C95.7463 67.7107 95.0863 67.2807 94.5663 66.7607C90.5763 62.7507 86.6063 58.7307 82.5463 54.7907C81.4263 53.7007 81.2263 53.0207 82.4163 51.7907C83.6663 50.4907 84.3763 50.8807 85.4163 51.9307C90.4363 57.0207 95.4962 62.0807 100.596 67.0907C101.626 68.1107 101.796 68.7707 100.646 69.8807C95.3863 74.9707 90.1763 80.1007 85.0563 85.3307C83.8263 86.5907 83.2763 86.0107 82.3063 85.1307C81.1863 84.1107 81.1162 83.4607 82.2562 82.3607C86.4362 78.3107 90.5162 74.1607 94.6262 70.0407C95.0862 69.5707 95.5063 69.0607 95.9063 68.6207H95.9163Z" fill="#CDE4CC"/>
<path d="M47.1863 68.4307C47.6163 67.9107 47.9563 67.4407 48.3563 67.0407C53.3963 61.9907 58.4863 56.9707 63.4863 51.8707C64.6063 50.7307 65.2963 50.6807 66.4763 51.8507C67.7763 53.1307 67.2963 53.8207 66.2463 54.8407C62.1463 58.8507 58.1563 62.9607 54.0463 66.9507C52.8763 68.0807 52.8863 68.7907 54.0463 69.9307C58.2463 74.0607 62.3063 78.3407 66.5063 82.4707C67.6263 83.5707 67.5662 84.1707 66.4562 85.2207C65.4462 86.1707 64.8862 86.5907 63.7062 85.3707C58.5662 80.0707 53.3163 74.8607 48.1163 69.6207C47.7863 69.2807 47.5263 68.8707 47.1863 68.4307Z" fill="#CDE4CC"/>
<path d="M61.2162 108.001C63.8162 106.651 64.5263 104.241 62.8663 102.111C61.8263 100.771 61.9463 99.9307 63.1163 98.7807C64.2463 97.6707 65.0363 97.4007 66.4363 98.4607C68.9363 100.371 71.6664 99.2907 72.1964 96.2307C72.4964 94.5107 73.1763 93.8907 74.9763 93.9207C76.7763 93.9507 77.1963 94.7707 77.3963 96.3107C77.7463 99.0607 80.6163 100.291 82.8563 98.6507C84.0463 97.7807 84.9563 97.2207 86.2463 98.5707C87.3863 99.7707 87.7763 100.691 86.6463 102.181C85.1863 104.091 85.6863 105.921 87.9263 108.001C87.4463 108.211 87.0063 108.401 86.5663 108.601C85.1463 109.251 84.3563 109.251 83.8063 107.321C82.7363 103.551 79.9563 101.381 76.0563 100.901C72.0763 100.411 68.9164 101.901 66.6964 105.281C66.4264 105.691 66.2063 106.151 66.0163 106.601C65.163 108.654 63.5663 109.121 61.2263 108.001H61.2162Z" fill="#CDE4CC"/>
<path d="M67.7963 79.6907C67.0763 78.7507 66.3363 77.8707 65.6963 76.9207C65.1563 76.1307 65.9163 75.7207 66.3563 75.2807C71.2763 70.3407 76.2363 65.4407 81.1263 60.4707C82.1663 59.4107 82.9363 59.5307 83.7363 60.6107C84.3463 61.4207 85.8663 61.9207 84.4063 63.3607C79.3163 68.3607 74.2863 73.4407 69.2363 78.4807C68.9463 78.7707 68.6163 79.0107 67.8063 79.7007L67.7963 79.6907Z" fill="#CDE4CC"/>
<path d="M74.5463 110.501C72.9663 110.501 71.3963 110.551 69.8163 110.481C68.7563 110.441 68.4363 109.861 68.6963 108.791C69.3163 106.261 71.7663 104.221 74.4863 104.101C77.2863 103.971 79.8463 105.661 80.7463 108.131C81.2963 109.641 80.7463 110.351 79.2663 110.471C77.6963 110.591 76.1163 110.641 74.5463 110.721C74.5463 110.651 74.5463 110.581 74.5463 110.511V110.501Z" fill="#CDE4CC"/>
<path d="M72.1163 39.9907H76.3163C75.0563 42.9007 74.5363 42.9407 72.1163 39.9907Z" fill="#CBDCD8"/>
<path d="M49.0764 50.7807C47.5064 50.7807 45.9363 50.7507 44.3663 50.7907C43.2363 50.8207 42.7162 50.4007 42.7062 49.2107C42.7062 48.0607 43.1263 47.5507 44.2963 47.5607C47.5163 47.5907 50.7462 47.5907 53.9662 47.5607C55.0762 47.5607 55.6263 47.9407 55.6163 49.1407C55.6163 50.2707 55.2263 50.8307 54.0363 50.7907C52.3863 50.7407 50.7264 50.7807 49.0764 50.7807Z" fill="#436965"/>
<path d="M98.8163 84.2807C99.3963 84.2807 99.9763 84.3207 100.556 84.2807C101.776 84.1907 102.396 84.6207 102.406 85.9507C102.406 87.2607 101.676 87.4307 100.646 87.4007C99.4063 87.3707 98.1563 87.3707 96.9163 87.4007C95.7663 87.4207 94.7762 87.4307 94.8462 85.7707C94.9062 84.2907 95.7762 84.2507 96.8362 84.2807C97.4962 84.3007 98.1663 84.2807 98.8263 84.2807H98.8163Z" fill="#436965"/>
</svg>
