<svg width="49" height="29" viewBox="0 0 49 29" fill="none" xmlns="http://www.w3.org/2000/svg">
<path d="M34.219 21.407V8.83008H48.393L43.3733 15.1185L48.393 21.407H34.219Z" fill="#FFC728"/>
<path d="M14.2082 8.83008V21.407H0.0341797L5.05352 15.1185L0.0341797 8.83008H14.2082Z" fill="#FFC728"/>
<path d="M36.6972 19.9637C38.1022 16.2252 37.962 12.2707 36.5983 8.83008H32.8135V21.407H36.0698C36.3005 20.9421 36.5104 20.4611 36.6969 19.9641L36.6972 19.9637Z" fill="#FDB92A"/>
<path d="M11.6653 9.08356C10.0955 13.2611 10.4539 17.7087 12.2939 21.407H15.6131V8.83008H11.7642C11.7308 8.91432 11.6975 8.99817 11.6653 9.08356Z" fill="#FDB92A"/>
<path d="M24.1814 26.9207C30.895 26.9207 36.3374 21.3704 36.3374 14.5238C36.3374 7.67721 30.895 2.12695 24.1814 2.12695C17.4678 2.12695 12.0254 7.67721 12.0254 14.5238C12.0254 21.3704 17.4678 26.9207 24.1814 26.9207Z" fill="#D67D00"/>
<path d="M31.2007 21.6824C35.0774 17.7289 35.0774 11.319 31.2007 7.36546C27.324 3.41195 21.0387 3.41196 17.162 7.36546C13.2853 11.319 13.2853 17.7289 17.162 21.6824C21.0387 25.6359 27.324 25.6359 31.2007 21.6824Z" fill="#FFC728"/>
<path d="M24.7747 4.87256L24.8649 6.18443L26.1164 5.8668L24.921 6.35986L25.6037 7.47543L24.7747 6.46844L23.9453 7.47543L24.6284 6.35986L23.4326 5.8668L24.6841 6.18443L24.7747 4.87256Z" fill="white"/>
<path d="M19.8464 20.3271V17.9265H23.5763V8.6415H23.3977L20.5805 12.3317L18.6758 10.8437L21.9891 6.47896H26.5522V17.9265H29.4885V20.3271H19.8464Z" fill="#D67D00"/>
</svg>
