<svg width="36" height="36" viewBox="0 0 36 36" fill="none" xmlns="http://www.w3.org/2000/svg">
<path d="M18.1751 34.6021C27.1743 34.6021 34.4695 27.3068 34.4695 18.3077C34.4695 9.30847 27.1743 2.01318 18.1751 2.01318C9.17587 2.01318 1.88058 9.30847 1.88058 18.3077C1.88058 27.3068 9.17587 34.6021 18.1751 34.6021Z" stroke="white" stroke-width="2.1" stroke-miterlimit="10"/>
<path d="M25.8758 27.4579C25.7664 27.754 25.6051 27.9985 25.2913 28.079C25.2164 28.0987 25.1373 28.1078 25.0595 28.1078C20.4699 28.1078 15.8803 28.1078 11.2906 28.1078C10.7537 28.1078 10.4125 27.6811 10.4844 27.1116C10.7911 24.6987 11.8895 22.7883 13.7712 21.3882C14.8423 20.591 16.0415 20.14 17.3458 19.9881C20.7593 19.5918 24.0532 21.6555 25.3417 25.0069C25.5835 25.6341 25.7563 26.2825 25.8412 26.9537C25.8456 26.9826 25.8643 27.0099 25.8758 27.0372V27.4579Z" fill="white"/>
<path d="M18.692 8.50781C18.9612 8.57007 19.2376 8.61107 19.4982 8.69915C21.3568 9.32176 22.4826 10.6566 22.8123 12.6762C23.2355 15.2745 21.4979 17.7892 19.0231 18.2342C16.4389 18.6988 14.0347 16.8781 13.6215 14.1432C13.227 11.5373 14.9359 9.03475 17.4164 8.5807C17.5273 8.56096 17.6382 8.53211 17.7476 8.50781C18.0629 8.50781 18.3767 8.50781 18.692 8.50781Z" fill="white"/>
</svg>
