<svg width="10" height="13" viewBox="0 0 10 13" fill="none" xmlns="http://www.w3.org/2000/svg">
<g clip-path="url(#clip0_66_688)">
<path d="M1.56369 12.9995H1.2404C1.23066 12.9894 1.22181 12.971 1.21149 12.9697C0.586435 12.8909 -0.00410814 12.2353 2.15322e-05 11.3304C0.0147704 8.08635 0.00533111 4.84265 0.00621604 1.59862C0.00621604 0.981289 0.248982 0.508556 0.732448 0.20954C1.2165 -0.0894763 1.7103 -0.0652672 2.17931 0.256977C4.52762 1.87179 6.87416 3.48988 9.21833 5.1119C9.60033 5.37624 9.87259 5.74166 9.96049 6.25071C9.97141 6.3145 9.93985 6.39171 10 6.4434V6.63904C9.99058 6.64918 9.97406 6.65867 9.97318 6.67012C9.91949 7.23707 9.64812 7.63587 9.21745 7.9303C7.29892 9.24218 5.38983 10.5717 3.46452 11.8712C2.85156 12.2847 2.29936 12.8359 1.56399 12.9995H1.56369Z" fill="#13161D"/>
</g>
<defs>
<clipPath id="clip0_66_688">
<rect width="10" height="13" fill="white" transform="translate(0 -0.000488281)"/>
</clipPath>
</defs>
</svg>
