<svg width="149" height="150" viewBox="0 0 149 150" fill="none" xmlns="http://www.w3.org/2000/svg">
<circle cx="74.5222" cy="75.2992" r="74.3434" fill="#F0DDB4" fill-opacity="0.3"/>
<path d="M74.5926 36.9362C86.5726 36.9362 98.5626 36.9862 110.543 36.8962C112.713 36.8762 113.433 37.4962 113.413 39.7162C113.323 51.4362 113.663 63.1662 113.303 74.8762C112.723 93.5262 100.943 109.156 81.4527 113.006C62.8627 116.676 44.1126 105.496 38.0426 87.5862C36.3726 82.6562 35.6026 77.6262 35.6126 72.4462C35.6426 61.6462 35.6827 50.8362 35.5727 40.0362C35.5527 37.6762 36.1827 36.8762 38.6427 36.9062C50.6227 37.0262 62.6126 36.9562 74.5926 36.9562V36.9362ZM76.4026 85.3262C81.3626 80.3462 85.8827 75.8262 90.3727 71.2862C91.2127 70.4362 92.0326 69.6162 93.3626 69.8762C98.9526 70.9462 103.123 68.7362 106.393 64.3262C107.033 63.4662 107.853 62.7262 108.683 62.0362C109.743 61.1562 110.033 60.0862 110.013 58.7462C109.953 53.4262 109.903 48.1062 110.033 42.7862C110.083 40.8262 109.523 40.2162 107.513 40.2362C97.9427 40.3362 88.3626 40.3362 78.7926 40.2362C76.7326 40.2162 76.0626 40.7962 76.0926 42.8962C76.1926 52.2062 76.1327 61.5162 76.1427 70.8362C76.1427 71.5562 75.9126 72.3462 76.4926 72.8862C80.6126 68.6362 84.7126 64.3962 88.6726 60.3162C88.6026 60.3162 88.1026 60.2262 87.6227 60.2562C86.3826 60.3362 85.5326 60.1162 85.5526 58.5562C85.5726 57.0862 86.4327 56.9962 87.5227 57.0062C89.4327 57.0262 91.3527 57.0062 93.2627 57.0162C94.1327 57.0162 94.9926 57.0562 94.9926 58.2662C94.9926 60.5962 94.9926 62.9262 94.9926 65.2462C94.9926 66.5162 94.0726 66.3662 93.2426 66.4162C92.3126 66.4662 91.8927 66.1062 91.8827 65.1262C91.8827 64.5562 92.2627 63.7762 91.0727 63.2362C87.1327 67.2362 83.3426 71.5762 79.0326 75.3162C75.8826 78.0562 75.8527 81.1262 76.3927 85.3362L76.4026 85.3262ZM39.0027 60.5262C39.0027 60.5262 39.0927 60.5262 39.1427 60.5262C39.1427 66.7562 38.9126 72.9962 39.2126 79.2062C39.4926 85.1062 40.3926 85.6662 45.7226 85.3462C47.0126 85.2662 47.4827 84.8462 47.4427 83.5662C47.3727 81.4062 47.4726 79.2462 47.4126 77.0862C47.3726 75.7962 47.8526 75.3062 49.1526 75.3562C51.2326 75.4262 53.3127 75.3562 55.3927 75.3762C59.5227 75.4062 59.3126 74.8662 59.1126 79.0662C58.9926 81.6062 59.7426 82.3162 62.2926 82.2962C64.7826 82.2762 65.8627 81.6662 65.4427 79.0862C65.2927 78.1962 65.4226 77.2662 65.4226 76.3462C65.4226 71.2262 65.4226 71.1462 70.6026 71.1762C72.4226 71.1762 73.0626 70.7062 73.0426 68.7962C72.9526 60.0762 72.9526 51.3562 73.0426 42.6362C73.0626 40.7662 72.4626 40.2262 70.6126 40.2362C60.8826 40.3162 51.1526 40.3362 41.4226 40.2262C39.3126 40.2062 38.9526 40.9962 38.9826 42.8362C39.0726 48.7362 39.0127 54.6262 39.0127 60.5262H39.0027ZM109.953 76.5262C109.693 76.3662 109.423 76.2162 109.163 76.0562C108.303 77.0562 107.363 78.0062 106.593 79.0762C103.873 82.8662 100.263 84.4062 95.6427 83.6062C93.8627 83.2962 92.5227 83.9862 91.2627 85.3262C88.0627 88.6962 84.9626 92.2362 81.3526 95.1362C76.9626 98.6762 75.2227 102.886 76.1327 108.336C76.1427 108.416 76.1427 108.506 76.1327 108.586C75.9327 110.236 76.5727 110.796 78.2727 110.546C91.5127 108.586 101.203 101.756 106.943 89.6262C108.883 85.5162 110.033 81.1362 109.963 76.5462L109.953 76.5262ZM76.3727 95.1162C77.4527 94.9162 77.8626 94.1262 78.4326 93.5662C82.4526 89.5862 86.4526 85.5962 90.4326 81.5762C91.2926 80.7062 92.1726 79.9662 93.4626 80.2262C99.1126 81.3662 103.173 78.9062 106.463 74.6062C106.913 74.0162 107.443 73.4462 108.043 73.0162C110.683 71.1262 110.013 68.5062 109.943 65.8062C108.443 66.3562 107.603 67.3562 106.943 68.3262C104.203 72.3162 100.513 73.7662 95.8127 72.9662C94.0927 72.6762 92.8726 73.4262 91.6626 74.6562C87.2426 79.1762 82.8626 83.7462 78.1726 87.9662C75.7226 90.1662 76.0126 92.4662 76.3727 95.1262V95.1162ZM72.9926 92.4762C72.9926 87.0062 72.9427 81.5262 73.0227 76.0562C73.0427 74.3662 72.1727 74.1362 70.8327 74.2362C69.7427 74.3162 68.4726 73.8662 68.4826 75.8162C68.5326 86.7662 68.5127 97.7162 68.5027 108.656C68.5027 110.986 70.3626 110.276 71.5526 110.536C73.1726 110.886 72.9926 109.646 72.9926 108.656C72.9926 103.266 72.9926 97.8762 72.9926 92.4862V92.4762ZM65.4126 97.4062C65.4126 94.6662 65.4426 91.9262 65.4126 89.1862C65.3626 84.9762 66.1526 85.4662 61.6026 85.2762C59.5026 85.1862 59.1027 86.0262 59.1427 87.8862C59.2427 92.9462 59.1726 98.0062 59.1726 103.076C59.1726 107.676 59.3227 107.786 63.7027 108.946C65.1227 109.326 65.4626 108.966 65.4326 107.616C65.3826 104.216 65.4126 100.806 65.4126 97.4062ZM55.9326 105.236C55.9326 96.6762 55.8626 88.6162 55.9726 80.5462C56.0026 78.1662 54.5126 78.6462 53.1626 78.6062C51.7326 78.5662 50.4126 78.3562 50.4726 80.6462C50.6226 86.2962 50.8426 91.9762 50.4226 97.6062C50.1026 101.866 52.6827 103.346 55.9427 105.226L55.9326 105.236ZM47.4126 97.7762C47.4126 94.6862 47.4026 92.2962 47.4126 89.8962C47.4126 89.0562 47.2426 88.3662 46.2226 88.4362C44.7826 88.5462 43.2726 87.9962 41.9126 88.8162C41.8326 88.8662 41.9026 89.2862 41.9926 89.4862C43.3226 92.2962 44.7326 95.0662 47.4026 97.7662L47.4126 97.7762Z" fill="#846936"/>
<path d="M76.4027 85.3263C75.8627 81.1163 75.8827 78.0463 79.0427 75.3063C83.3527 71.5563 87.1427 67.2263 91.0827 63.2263C92.2727 63.7663 91.8827 64.5463 91.8927 65.1163C91.9027 66.0963 92.3127 66.4563 93.2527 66.4063C94.0827 66.3663 95.0027 66.5063 95.0027 65.2363C95.0027 62.9063 95.0027 60.5763 95.0027 58.2563C95.0027 57.0463 94.1427 57.0163 93.2727 57.0063C91.3627 57.0063 89.4427 57.0163 87.5327 56.9963C86.4327 56.9863 85.5827 57.0763 85.5627 58.5463C85.5427 60.1063 86.3927 60.3263 87.6327 60.2463C88.1227 60.2163 88.6127 60.2963 88.6827 60.3063C84.7227 64.3963 80.6127 68.6363 76.5027 72.8763C75.9327 72.3363 76.1527 71.5463 76.1527 70.8263C76.1327 61.5163 76.2027 52.2063 76.1027 42.8863C76.0827 40.7863 76.7527 40.2063 78.8027 40.2263C88.3727 40.3263 97.9527 40.3263 107.523 40.2263C109.523 40.2063 110.083 40.8163 110.043 42.7763C109.923 48.0963 109.963 53.4163 110.023 58.7363C110.043 60.0763 109.753 61.1463 108.693 62.0263C107.863 62.7163 107.043 63.4563 106.403 64.3163C103.133 68.7263 98.9727 70.9363 93.3727 69.8663C92.0427 69.6163 91.2227 70.4263 90.3827 71.2763C85.8927 75.8163 81.3727 80.3363 76.4127 85.3163L76.4027 85.3263ZM106.593 51.5563C106.673 51.8363 106.673 51.6063 106.583 51.5563C105.183 50.7663 104.103 49.6863 103.313 48.2863C103.113 47.9363 102.673 47.9563 102.493 48.2663C101.663 49.6263 100.593 50.7163 99.2327 51.5563C98.9127 51.7463 99.0727 52.2063 99.3727 52.3763C100.683 53.1463 101.663 54.2263 102.473 55.4863C102.543 55.5963 102.843 55.7063 102.883 55.6663C104.083 54.3663 105.263 53.0463 106.603 51.5663L106.593 51.5563Z" fill="#F0DDB4"/>
<path d="M39.0026 60.5263C39.0026 54.6263 39.0625 48.7263 38.9725 42.8363C38.9425 40.9963 39.3025 40.1963 41.4125 40.2263C51.1425 40.3363 60.8726 40.3163 70.6026 40.2363C72.4525 40.2263 73.0525 40.7563 73.0325 42.6363C72.9525 51.3563 72.9425 60.0763 73.0325 68.7963C73.0525 70.7063 72.4025 71.1863 70.5925 71.1763C65.4125 71.1463 65.4125 71.2263 65.4125 76.3463C65.4125 77.2563 65.2926 78.1963 65.4326 79.0863C65.8526 81.6663 64.7725 82.2763 62.2825 82.2963C59.7325 82.3163 58.9825 81.6063 59.1026 79.0663C59.3026 74.8663 59.5126 75.4163 55.3826 75.3763C53.3026 75.3563 51.2226 75.4263 49.1426 75.3563C47.8426 75.3063 47.3625 75.7963 47.4025 77.0863C47.4625 79.2463 47.3626 81.4063 47.4326 83.5663C47.4726 84.8463 46.9925 85.2663 45.7125 85.3463C40.3725 85.6763 39.4726 85.1063 39.2026 79.2063C38.9126 72.9963 39.1326 66.7563 39.1326 60.5263C39.0826 60.5263 39.0426 60.5263 38.9926 60.5263H39.0026ZM56.1726 69.3763C63.5626 69.4463 69.5626 63.5363 69.5526 56.1763C69.5526 48.9463 63.6425 42.9963 56.4125 42.9163C49.2125 42.8363 43.2025 48.6863 43.0325 55.9363C42.8625 63.2763 48.7626 69.3063 56.1726 69.3763Z" fill="#F0DDB4"/>
<path d="M109.953 76.5263C110.033 81.1163 108.873 85.4963 106.933 89.6063C101.203 101.736 91.5026 108.576 78.2626 110.526C76.5726 110.776 75.9226 110.216 76.1226 108.566C76.1326 108.486 76.1326 108.396 76.1226 108.316C75.2226 102.876 76.9526 98.6563 81.3426 95.1163C84.9426 92.2163 88.0526 88.6763 91.2526 85.3063C92.5126 83.9763 93.8526 83.2863 95.6326 83.5863C100.253 84.3863 103.853 82.8463 106.583 79.0563C107.353 77.9863 108.293 77.0463 109.153 76.0363C109.413 76.1963 109.683 76.3463 109.943 76.5063L109.953 76.5263Z" fill="#F0DDB4"/>
<path d="M76.3727 95.1163C76.0227 92.4563 75.7226 90.1463 78.1726 87.9563C82.8726 83.7363 87.2526 79.1663 91.6626 74.6463C92.8626 73.4163 94.0927 72.6663 95.8127 72.9563C100.513 73.7563 104.203 72.3063 106.943 68.3163C107.603 67.3463 108.443 66.3463 109.943 65.7963C110.013 68.5063 110.683 71.1263 108.043 73.0063C107.443 73.4363 106.913 74.0063 106.463 74.5963C103.173 78.9063 99.1126 81.3663 93.4626 80.2163C92.1726 79.9563 91.2927 80.6963 90.4327 81.5663C86.4527 85.5863 82.4527 89.5763 78.4327 93.5563C77.8627 94.1163 77.4527 94.9063 76.3727 95.1063V95.1163Z" fill="#F0DDB4"/>
<path d="M72.9926 92.4762C72.9926 97.8662 72.9926 103.256 72.9926 108.646C72.9926 109.626 73.1726 110.866 71.5526 110.526C70.3526 110.266 68.4926 110.986 68.5026 108.646C68.5226 97.6962 68.5326 86.7462 68.4826 75.8062C68.4826 73.8562 69.7426 74.3062 70.8326 74.2262C72.1726 74.1262 73.0426 74.3562 73.0226 76.0462C72.9526 81.5162 72.9926 86.9962 72.9926 92.4662V92.4762Z" fill="#F0DDB4"/>
<path d="M65.4026 97.4062C65.4026 100.806 65.3627 104.216 65.4227 107.616C65.4427 108.966 65.1027 109.326 63.6927 108.946C59.3127 107.786 59.1627 107.666 59.1627 103.076C59.1627 98.0162 59.2227 92.9462 59.1327 87.8862C59.0927 86.0362 59.4926 85.1962 61.5926 85.2762C66.1426 85.4662 65.3526 84.9762 65.4026 89.1862C65.4426 91.9262 65.4026 94.6662 65.4026 97.4062Z" fill="#F0DDB4"/>
<path d="M55.9326 105.236C52.6726 103.356 50.0925 101.876 50.4125 97.6163C50.8425 91.9963 50.6225 86.3063 50.4625 80.6563C50.4025 78.3563 51.7225 78.5763 53.1525 78.6163C54.5025 78.6563 55.9925 78.1763 55.9625 80.5563C55.8525 88.6163 55.9226 96.6863 55.9226 105.246L55.9326 105.236Z" fill="#F0DDB4"/>
<path d="M47.4126 97.7763C44.7426 95.0663 43.3226 92.3063 42.0026 89.4963C41.9026 89.2963 41.8426 88.8763 41.9226 88.8263C43.2926 88.0063 44.7926 88.5563 46.2326 88.4463C47.2526 88.3663 47.4326 89.0563 47.4226 89.9063C47.4026 92.2963 47.4226 94.6963 47.4226 97.7863L47.4126 97.7763Z" fill="#F0DDB4"/>
<path d="M106.593 51.5562C105.263 53.0362 104.083 54.3562 102.873 55.6562C102.843 55.6962 102.533 55.5862 102.463 55.4762C101.653 54.2162 100.673 53.1362 99.3626 52.3662C99.0626 52.1862 98.9026 51.7362 99.2226 51.5462C100.593 50.7162 101.653 49.6162 102.483 48.2562C102.663 47.9562 103.113 47.9362 103.303 48.2762C104.093 49.6762 105.173 50.7662 106.573 51.5462C106.673 51.5962 106.663 51.8362 106.583 51.5462L106.593 51.5562Z" fill="#846936"/>
<path d="M56.1727 69.3762C48.7727 69.3062 42.8727 63.2662 43.0327 55.9362C43.2027 48.6862 49.2127 42.8362 56.4127 42.9162C63.6427 42.9962 69.5427 48.9462 69.5527 56.1762C69.5527 63.5262 63.5727 69.4462 56.1727 69.3762ZM46.3127 56.2662C46.3327 61.7862 50.8027 66.2362 56.3027 66.2162C61.7827 66.1962 66.3227 61.6662 66.3027 56.2362C66.2827 50.6562 61.6627 46.0262 56.1427 46.0762C50.8327 46.1162 46.2927 50.8262 46.3127 56.2762V56.2662Z" fill="#846936"/>
<path d="M46.3126 56.2663C46.2926 50.8163 50.8326 46.1063 56.1426 46.0663C61.6626 46.0163 66.2826 50.6463 66.3026 56.2263C66.3226 61.6563 61.7826 66.1863 56.3026 66.2063C50.8026 66.2263 46.3326 61.7763 46.3126 56.2563V56.2663ZM56.7326 52.2763C57.1726 52.2263 57.8026 53.1763 58.7226 53.2163C59.4426 53.2463 60.3426 53.5763 60.8226 52.8863C61.3326 52.1563 60.7226 51.4263 60.2626 50.8963C59.3126 49.8163 58.0026 49.1463 57.3126 47.6963C57.0426 47.1263 55.2526 46.8563 54.7126 48.3063C54.4826 48.9063 54.2026 49.2663 53.6126 49.5163C51.8226 50.2663 50.8226 51.5663 51.0226 53.5863C51.2226 55.6963 52.6326 56.7563 54.4626 57.4063C55.3226 57.7063 56.2126 57.8963 57.0626 58.2363C57.5926 58.4463 58.2026 58.7863 58.0926 59.4763C57.9526 60.3663 57.1526 60.2063 56.5126 60.2963C55.5026 60.4463 54.8426 59.5863 53.9626 59.4663C53.1826 59.3563 52.1826 59.0163 51.6826 59.8963C51.2526 60.6463 51.8326 61.3963 52.3926 61.8463C53.5926 62.7963 54.3526 64.2763 55.4626 65.0863C57.3326 66.4463 57.6226 63.5563 58.9726 63.1363C59.1326 63.0863 59.2626 62.9863 59.4026 62.8963C62.2426 61.1263 62.3226 57.9163 59.6126 55.9563C58.4226 55.0963 56.9926 54.9463 55.6826 54.4363C55.0426 54.1863 54.3226 53.8563 54.5026 53.0663C54.6826 52.2763 55.5226 52.3763 56.7326 52.2763Z" fill="#F0DDB4"/>
<path d="M56.7326 52.2763C55.5226 52.3763 54.6926 52.2763 54.5026 53.0663C54.3226 53.8563 55.0426 54.1863 55.6826 54.4363C56.9926 54.9363 58.4126 55.0963 59.6126 55.9563C62.3226 57.9063 62.2425 61.1263 59.4025 62.8963C59.2625 62.9863 59.1225 63.0863 58.9725 63.1363C57.6225 63.5563 57.3325 66.4563 55.4625 65.0863C54.3425 64.2763 53.5926 62.8063 52.3926 61.8463C51.8326 61.3963 51.2526 60.6463 51.6826 59.8963C52.1826 59.0263 53.1825 59.3663 53.9625 59.4663C54.8425 59.5863 55.5126 60.4463 56.5126 60.2963C57.1526 60.2063 57.9525 60.3563 58.0925 59.4763C58.2025 58.7763 57.5926 58.4463 57.0626 58.2363C56.2226 57.8963 55.3225 57.7063 54.4625 57.4063C52.6325 56.7663 51.2226 55.7063 51.0226 53.5863C50.8326 51.5663 51.8226 50.2663 53.6126 49.5163C54.2026 49.2663 54.4825 48.9163 54.7125 48.3063C55.2625 46.8663 57.0426 47.1263 57.3126 47.6963C58.0026 49.1463 59.3126 49.8063 60.2626 50.8963C60.7326 51.4363 61.3326 52.1663 60.8226 52.8863C60.3426 53.5663 59.4425 53.2463 58.7225 53.2163C57.7925 53.1763 57.1726 52.2263 56.7326 52.2763Z" fill="#846936"/>
</svg>
