<svg width="244" height="232" viewBox="0 0 244 232" fill="none" xmlns="http://www.w3.org/2000/svg">
<path d="M243.673 17.1512C241.495 54.2927 227.371 85.8737 198.776 110.013C176.171 129.087 152.741 147.171 129.658 165.651C123.949 170.222 117.415 170.123 112.184 165.008C101.014 154.085 89.9585 143.03 79.052 131.843C73.6565 126.299 73.607 120.194 78.458 114.138C96.839 91.1372 114.808 67.7897 133.766 45.2837C153.962 21.2927 180.032 6.90466 211.118 1.88866C217.075 0.931664 223.064 0.552164 229.087 0.205664C237.238 -0.256336 244.745 4.77616 243.706 15.1052C243.64 15.7817 243.706 16.4747 243.706 17.1677L243.673 17.1512ZM182.045 80.2637C192.275 80.2307 200.278 72.2942 200.344 62.1137C200.41 51.7847 192.275 43.6832 181.88 43.7162C171.634 43.7492 163.648 51.6857 163.582 61.8662C163.516 72.2117 171.65 80.2967 182.045 80.2637Z" fill="#07E98A"/>
<path d="M86.4276 191.87C86.4441 209.162 73.6566 223.781 56.9421 226.437C46.2666 228.137 35.5911 229.754 24.8826 231.305C15.9396 232.592 11.3361 227.873 12.6726 218.864C14.2566 208.172 15.9066 197.496 17.5071 186.804C20.0481 169.974 35.2941 157.253 52.5036 157.616C69.2181 157.979 83.6226 170.733 85.8501 187.184C86.1141 189.081 86.3121 190.979 86.4111 191.87H86.4276Z" fill="#D5AB00"/>
<path d="M112.679 179.742C123.404 182.877 131.72 179.907 139.558 173.456C155.398 160.404 171.551 147.749 187.589 134.945C188.513 134.202 189.52 133.559 190.625 132.783C191.5 134.103 191.186 135.357 191.186 136.512C191.203 149.927 191.104 163.358 191.236 176.772C191.335 186.425 186.995 193.239 178.564 197.529C168.944 202.43 159.308 207.281 149.573 211.95C137.248 217.857 123.817 212.214 119.312 199.361C117.118 193.074 115.039 186.755 112.679 179.726V179.742Z" fill="#07E98A"/>
<path d="M111.722 52.9397C105.007 61.3712 98.8191 69.1592 92.6151 76.9142C84.6621 86.8472 76.5936 96.6812 68.7891 106.713C63.2946 113.759 61.0506 121.679 64.2351 131.282C55.5231 128.048 46.9266 126.513 39.4191 122.108C30.8886 117.108 27.1101 105.624 31.3341 96.2522C36.4326 84.9332 41.9601 73.7792 47.9166 62.8727C51.0351 57.1637 56.4966 53.2037 63.1791 53.0552C79.0356 52.6757 94.9086 52.9397 111.739 52.9397H111.722Z" fill="#07E98A"/>
<path d="M104.792 12.5807C104.809 18.0092 100.997 21.8207 95.5521 21.8042C90.1401 21.7877 86.3615 17.9102 86.4275 12.4817C86.4935 7.26765 90.2391 3.52215 95.4696 3.47265C100.915 3.40665 104.792 7.20165 104.809 12.5972L104.792 12.5807Z" fill="#07E98A"/>
<path d="M240.406 185.204C240.472 190.632 236.677 194.526 231.281 194.559C225.935 194.592 221.942 190.665 221.959 185.352C221.959 180.188 225.787 176.294 230.918 176.195C236.363 176.096 240.323 179.858 240.406 185.204Z" fill="#07E98A"/>
<path d="M18.4311 136.149C18.3816 141.528 14.4381 145.29 9.00958 145.208C3.66358 145.109 -0.0819197 141.132 0.0665803 135.687C0.19858 130.523 4.04308 126.827 9.29008 126.843C14.6856 126.843 18.4971 130.737 18.4476 136.166L18.4311 136.149Z" fill="#07E98A"/>
</svg>
