<svg width="49" height="29" viewBox="0 0 49 29" fill="none" xmlns="http://www.w3.org/2000/svg">
<path d="M34.219 21.2874V8.71045H48.393L43.3733 14.9989L48.393 21.2874H34.219Z" fill="#A8C1D5"/>
<path d="M14.2082 8.71045V21.2874H0.0341797L5.05352 14.9989L0.0341797 8.71045H14.2082Z" fill="#A8C1D5"/>
<path d="M36.6972 19.8441C38.1022 16.1056 37.962 12.1511 36.5983 8.71045H32.8135V21.2874H36.0698C36.3005 20.8225 36.5104 20.3414 36.6969 19.8445L36.6972 19.8441Z" fill="#BCCCD9"/>
<path d="M11.6653 8.96393C10.0955 13.1414 10.4539 17.589 12.2939 21.2874H15.6131V8.71045H11.7642C11.7308 8.79469 11.6975 8.87854 11.6653 8.96393Z" fill="#BCCCD9"/>
<path d="M24.1814 26.801C30.895 26.801 36.3374 21.2508 36.3374 14.4042C36.3374 7.55758 30.895 2.00732 24.1814 2.00732C17.4678 2.00732 12.0254 7.55758 12.0254 14.4042C12.0254 21.2508 17.4678 26.801 24.1814 26.801Z" fill="#86A5BE"/>
<path d="M31.2007 21.5628C35.0774 17.6093 35.0774 11.1993 31.2007 7.24583C27.324 3.29232 21.0387 3.29233 17.162 7.24584C13.2853 11.1993 13.2853 17.6092 17.162 21.5628C21.0387 25.5163 27.324 25.5163 31.2007 21.5628Z" fill="#D4E5ED"/>
<path d="M24.7747 4.75293L24.8649 6.0648L26.1164 5.74717L24.921 6.24023L25.6037 7.3558L24.7747 6.34881L23.9453 7.3558L24.6284 6.24023L23.4326 5.74717L24.6841 6.0648L24.7747 4.75293Z" fill="white"/>
<path d="M29.1131 21.2876H19.3123V18.5695L23.5778 14.919C23.9614 14.5884 24.2854 14.2908 24.55 14.0262C24.8145 13.7485 25.0261 13.4839 25.1849 13.2326C25.3568 12.9681 25.4758 12.7102 25.542 12.4589C25.6213 12.2076 25.661 11.9364 25.661 11.6454V11.3677C25.661 11.1032 25.6081 10.8717 25.5023 10.6733C25.3965 10.4749 25.2576 10.3096 25.0857 10.1773C24.9137 10.045 24.7153 9.94583 24.4905 9.8797C24.2788 9.81357 24.0606 9.7805 23.8357 9.7805C23.5051 9.7805 23.2141 9.83341 22.9628 9.93922C22.7247 10.045 22.5131 10.1905 22.3279 10.3757C22.156 10.5476 22.0105 10.7527 21.8914 10.9907C21.7724 11.2156 21.6798 11.4603 21.6137 11.7248L19.0147 10.7328C19.1734 10.2567 19.3916 9.80696 19.6694 9.38371C19.9471 8.94723 20.291 8.57027 20.7011 8.25284C21.1243 7.92217 21.6203 7.66426 22.189 7.47908C22.7578 7.29391 23.3993 7.20133 24.1135 7.20133C24.8674 7.20133 25.5354 7.30714 26.1173 7.51876C26.6993 7.73039 27.1887 8.02137 27.5855 8.39172C27.9955 8.76206 28.3063 9.20515 28.5179 9.72098C28.7296 10.2236 28.8354 10.7725 28.8354 11.3677C28.8354 11.9629 28.7362 12.5052 28.5378 12.9946C28.3394 13.4839 28.0682 13.9469 27.7243 14.3833C27.3937 14.8066 27.0035 15.21 26.5538 15.5936C26.1041 15.9771 25.6346 16.3673 25.1452 16.7641L22.566 18.7878H29.1131V21.2876Z" fill="#86A5BE"/>
</svg>
