<svg width="49" height="29" viewBox="0 0 49 29" fill="none" xmlns="http://www.w3.org/2000/svg">
<path d="M34.219 21.4431V8.86621H48.393L43.3733 15.1547L48.393 21.4431H34.219Z" fill="#FF9C43"/>
<path d="M14.2082 8.86621V21.4431H0.0341797L5.05352 15.1547L0.0341797 8.86621H14.2082Z" fill="#FF9C43"/>
<path d="M36.6972 19.9999C38.1022 16.2614 37.962 12.3068 36.5983 8.86621H32.8135V21.4431H36.0698C36.3005 20.9783 36.5104 20.4972 36.6969 20.0003L36.6972 19.9999Z" fill="#FFC897"/>
<path d="M11.6653 9.1197C10.0955 13.2972 10.4539 17.7448 12.2939 21.4431H15.6131V8.86621H11.7642C11.7308 8.95045 11.6975 9.0343 11.6653 9.1197Z" fill="#FFC897"/>
<path d="M24.1814 26.9568C30.895 26.9568 36.3374 21.4065 36.3374 14.5599C36.3374 7.71335 30.895 2.16309 24.1814 2.16309C17.4678 2.16309 12.0254 7.71335 12.0254 14.5599C12.0254 21.4065 17.4678 26.9568 24.1814 26.9568Z" fill="#DE710E"/>
<path d="M31.2007 21.7185C35.0774 17.765 35.0774 11.3551 31.2007 7.40159C27.324 3.44809 21.0387 3.44809 17.162 7.4016C13.2853 11.3551 13.2853 17.765 17.162 21.7185C21.0387 25.672 27.324 25.672 31.2007 21.7185Z" fill="#F7BE89"/>
<path d="M24.7747 4.90869L24.8649 6.22056L26.1164 5.90293L24.921 6.39599L25.6037 7.51156L24.7747 6.50457L23.9453 7.51156L24.6284 6.39599L23.4326 5.90293L24.6841 6.22056L24.7747 4.90869Z" fill="white"/>
<path d="M23.9605 13.071C24.7012 13.071 25.2368 12.9321 25.5675 12.6543C25.9114 12.3633 26.0833 12.0062 26.0833 11.583V11.4441C26.0833 10.9415 25.918 10.5381 25.5873 10.2339C25.2699 9.92965 24.8136 9.77755 24.2184 9.77755C23.6629 9.77755 23.1404 9.92304 22.6511 10.214C22.1617 10.4918 21.745 10.8952 21.4011 11.4243L19.5362 9.67835C19.8007 9.33446 20.0851 9.02363 20.3893 8.74588C20.6935 8.45489 21.0374 8.2102 21.421 8.0118C21.8046 7.80018 22.2344 7.64146 22.7106 7.53565C23.1867 7.41661 23.7224 7.35709 24.3176 7.35709C25.0583 7.35709 25.7262 7.44306 26.3214 7.61501C26.9298 7.78695 27.4457 8.03826 27.8689 8.36892C28.3054 8.68636 28.6361 9.06993 28.8609 9.51963C29.099 9.96933 29.218 10.4719 29.218 11.0275C29.218 11.4639 29.1453 11.8607 28.9998 12.2178C28.8675 12.575 28.6757 12.8858 28.4244 13.1503C28.1864 13.4148 27.9086 13.6331 27.5912 13.805C27.2737 13.9637 26.9365 14.0762 26.5793 14.1423V14.2613C26.9894 14.3407 27.3663 14.473 27.7102 14.6581C28.0673 14.8301 28.3715 15.0549 28.6228 15.3327C28.8874 15.6105 29.0924 15.9411 29.2379 16.3247C29.3834 16.695 29.4561 17.1183 29.4561 17.5944C29.4561 18.2161 29.3305 18.7782 29.0792 19.2808C28.8279 19.7834 28.4707 20.2133 28.0078 20.5704C27.5449 20.9275 26.9894 21.2053 26.3413 21.4037C25.6932 21.5889 24.9789 21.6814 24.1986 21.6814C23.4976 21.6814 22.8759 21.6087 22.3336 21.4632C21.7913 21.3177 21.3152 21.1259 20.9052 20.8878C20.5084 20.6365 20.1579 20.3522 19.8536 20.0347C19.5627 19.7173 19.3047 19.38 19.0799 19.0229L21.2821 17.3167C21.5863 17.8854 21.9567 18.355 22.3931 18.7253C22.8428 19.0824 23.4446 19.261 24.1986 19.261C24.8731 19.261 25.3956 19.0956 25.7659 18.765C26.1495 18.4211 26.3413 17.9582 26.3413 17.3762V17.2572C26.3413 16.6884 26.123 16.2652 25.6865 15.9874C25.2633 15.6964 24.6747 15.5509 23.9208 15.5509H22.6709V13.071H23.9605Z" fill="#DE710E"/>
</svg>
